<svg xmlns="http://www.w3.org/2000/svg" width="153.379" height="118.333" viewBox="0 0 153.379 118.333">
  <g id="_7228378_cloud_two-step-verification_otp_verification-code_password_icon_2" data-name="7228378_cloud_two-step-verification_otp_verification-code_password_icon_2" transform="translate(-181.7 4012.801)">
    <path id="Path_219" data-name="Path 219" d="M256.5-4012.782a39.471,39.471,0,0,0-14.752,3.588,36.8,36.8,0,0,0-12.151,8.939c-.616.693-1.582,1.9-2.161,2.706a33.533,33.533,0,0,0-2.593,4.2,9.643,9.643,0,0,1-2.511,3.25,10.436,10.436,0,0,1-5.383,2.321c-.255.037-.97.071-1.87.094-1.566.039-2.186.073-3.349.19a34.772,34.772,0,0,0-21.836,10.6,29.964,29.964,0,0,0-8.033,17.238,29.765,29.765,0,0,0,0,6.169,29.254,29.254,0,0,0,6.09,14.806,29.28,29.28,0,0,0,3.641,3.932,30.452,30.452,0,0,0,2.93,2.431,35.9,35.9,0,0,0,14.847,6.286,38.925,38.925,0,0,0,6.2.57,2.315,2.315,0,0,0,1.808-.6,1.827,1.827,0,0,0,.037-2.707,2.33,2.33,0,0,0-1.8-.628c-.686,0-1.915-.068-2.835-.152a31.527,31.527,0,0,1-14.892-5.351,29.348,29.348,0,0,1-6.176-5.7,25.57,25.57,0,0,1-5.687-14.23,33.926,33.926,0,0,1,0-3.482,25.237,25.237,0,0,1,2.149-8.572,27.914,27.914,0,0,1,11.465-12.623,31.239,31.239,0,0,1,9.928-3.689,31.382,31.382,0,0,1,5.613-.549,18.217,18.217,0,0,0,3-.231,14.369,14.369,0,0,0,9.657-6.165c.131-.2.514-.87.851-1.495s.727-1.324.867-1.552a31.141,31.141,0,0,1,8.617-9.307,34.505,34.505,0,0,1,16.951-6.249,38.355,38.355,0,0,1,6.554,0,33.662,33.662,0,0,1,23.049,11.99,29.136,29.136,0,0,1,3.345,5.075,13.928,13.928,0,0,0,1.8,2.785,14.449,14.449,0,0,0,5.35,3.929,15.8,15.8,0,0,0,4.343,1.12c.308.035,1.208.076,2.034.1a33.356,33.356,0,0,1,3.571.231,31.087,31.087,0,0,1,13.5,4.969,29.519,29.519,0,0,1,4.578,3.807,25.9,25.9,0,0,1,7.54,19.1,25.653,25.653,0,0,1-7.2,16.744c-.485.517-1.977,1.91-2.552,2.383a31.068,31.068,0,0,1-11.732,6.018,33.4,33.4,0,0,1-8.136,1.1,2.3,2.3,0,0,0-1.767.6,1.839,1.839,0,0,0-.555.894,1.974,1.974,0,0,0,1.59,2.384,26.988,26.988,0,0,0,4.943-.212,35.738,35.738,0,0,0,18.081-7.5c.707-.565,2.2-1.911,2.876-2.6a29.484,29.484,0,0,0,8.724-19.7,29.793,29.793,0,0,0-9.977-23.14,34.955,34.955,0,0,0-19.806-8.8c-1-.114-2.067-.179-3.542-.213a11.478,11.478,0,0,1-3.353-.385,10.255,10.255,0,0,1-4.2-2.271,9.616,9.616,0,0,1-2.223-2.983,34.148,34.148,0,0,0-7.306-9.5,38.637,38.637,0,0,0-24.15-9.954C259.87-4012.8,257.088-4012.812,256.5-4012.782Z" transform="translate(0 0)" fill="#918c7e"/>
    <path id="Path_220" data-name="Path 220" d="M1379.394-3309.628a18.548,18.548,0,0,0-9.361,2.869,16.553,16.553,0,0,0-2.293,1.779,14.946,14.946,0,0,0-2.609,3.013,14.856,14.856,0,0,0-2.484,8.372,1.685,1.685,0,0,1-.087.738,1.233,1.233,0,0,1-.716.651,6.693,6.693,0,0,1-1.935.079c-.932,0-1.9.019-2.151.038a7.745,7.745,0,0,0-2.547.644,6.8,6.8,0,0,0-4.169,5.3c-.033.22-.046,5.079-.046,15.442,0,16.448-.013,15.411.229,16.282a7.014,7.014,0,0,0,4.177,4.477,7.92,7.92,0,0,0,2.313.549c.329.031,6.691.038,22.593.031l22.135-.012.479-.087a7.4,7.4,0,0,0,5.33-3.7,6.146,6.146,0,0,0,.7-2.176c.058-.446.058-30.36,0-30.807a5.788,5.788,0,0,0-.333-1.343,7.3,7.3,0,0,0-6.382-4.6c-.25-.019-1.457-.038-2.671-.038h-2.218v-1a16.55,16.55,0,0,0-.337-3.758,15.773,15.773,0,0,0-6.911-9.791,18.925,18.925,0,0,0-5.1-2.293A20,20,0,0,0,1379.394-3309.628Zm1.955,10.12a6.869,6.869,0,0,1,3.412,1.681,5.676,5.676,0,0,1,1.294,1.631,6.023,6.023,0,0,1,.724,3.316v.753h-6.407c-5.284,0-6.432-.007-6.545-.049a1.034,1.034,0,0,1-.5-.42,2.91,2.91,0,0,1-.079-1.374,5.6,5.6,0,0,1,.736-2.32,6.793,6.793,0,0,1,4.989-3.273A9.922,9.922,0,0,1,1381.35-3299.507Zm-.333,19.854a5.919,5.919,0,0,1,5.292,5.882,5.558,5.558,0,0,1-2.255,4.19,3.268,3.268,0,0,0-.973,1.048c-.266.508-.266.492-.291,2.729l-.025,2.043-.117.3a2.425,2.425,0,0,1-.7,1,2.707,2.707,0,0,1-1.044.6,2.23,2.23,0,0,1-.907.1,2.438,2.438,0,0,1-.874-.087,2.765,2.765,0,0,1-1.76-1.574l-.129-.306-.029-2.081c-.025-2.245-.025-2.218-.262-2.687a2.926,2.926,0,0,0-.949-1.049,5.682,5.682,0,0,1-2.205-3.373,4.221,4.221,0,0,1-.091-1.067,4.433,4.433,0,0,1,.312-1.817,5.5,5.5,0,0,1,1.539-2.256A6.684,6.684,0,0,1,1381.017-3279.653Z" transform="translate(-1121.607 -675.509)" fill="#918c7e"/>
    <path id="Path_221" data-name="Path 221" d="M477.524-3082.868c-8.142.586-15.349,5.006-18.952,11.634a19.433,19.433,0,0,0-2.417,8.856,3.906,3.906,0,0,0,.037,1.033,2.092,2.092,0,0,0,1.3,1.434,2.257,2.257,0,0,0,2.729-.9,1.925,1.925,0,0,0,.245-1.014,19.61,19.61,0,0,1,.171-2.233,16.774,16.774,0,0,1,6.62-10.961,19.861,19.861,0,0,1,9.915-3.856c.3-.034,1.011-.075,1.581-.094,1.182-.038,1.406-.079,1.835-.337a1.875,1.875,0,0,0-.046-3.331c-.408-.235-.628-.269-1.66-.265C478.377-3082.9,477.766-3082.884,477.524-3082.868Z" transform="translate(-263.026 -893.739)" fill="#918c7e"/>
    <path id="Path_222" data-name="Path 222" d="M3224.414-1561.835a13,13,0,0,0-8.958,4.765,10.693,10.693,0,0,0-1.486,10.9,12.019,12.019,0,0,0,6.179,6.112,13.209,13.209,0,0,0,5.242,1.2,13,13,0,0,0,11.376-5.79,10.068,10.068,0,0,0,1.46-3.8,2.012,2.012,0,0,0-1.166-1.744,2.969,2.969,0,0,0-1-.235,3.29,3.29,0,0,0-.437.057,2.089,2.089,0,0,0-1.706,1.627,7.759,7.759,0,0,1-1.052,2.354,8.491,8.491,0,0,1-5.812,3.52,11.823,11.823,0,0,1-2.684-.019,8.582,8.582,0,0,1-4.977-2.593,7.083,7.083,0,0,1-1.785-6.483,7.682,7.682,0,0,1,3.662-4.807,9.134,9.134,0,0,1,4.244-1.188,2.773,2.773,0,0,0,1.165-.2,2.1,2.1,0,0,0,1.148-1.193,2.29,2.29,0,0,0,.038-1.071,2.149,2.149,0,0,0-1.561-1.411A8.345,8.345,0,0,0,3224.414-1561.835Z" transform="translate(-2907.196 -2355.62)" fill="#918c7e"/>
    <path id="Path_223" data-name="Path 223" d="M3397.434-1511.585a2.376,2.376,0,0,0-1.007.473c-.121.1-1.922,1.93-4.007,4.065s-3.807,3.875-3.832,3.872-.529-.47-1.115-1.03c-1.09-1.041-1.336-1.238-1.76-1.381a2.848,2.848,0,0,0-1.19-.08,2.438,2.438,0,0,0-1.069.534,1.86,1.86,0,0,0-.291,2.464c.12.17,3.665,3.588,4.023,3.883a2.592,2.592,0,0,0,.948.461,2.846,2.846,0,0,0,1.091-.015,2.07,2.07,0,0,0,.948-.522c.171-.151,2.363-2.381,4.88-4.954,4.727-4.84,4.769-4.886,4.9-5.344a2.31,2.31,0,0,0,0-1.026A2.207,2.207,0,0,0,3397.434-1511.585Z" transform="translate(-3069.856 -2404.115)" fill="#918c7e"/>
    <path id="Path_224" data-name="Path 224" d="M1044.054-1464.619a10.774,10.774,0,0,0-5.072,1.976,8.625,8.625,0,0,0-2,12.288,10.329,10.329,0,0,0,7.581,3.993c.383.031,10.323.038,33.024.027l32.474-.011.52-.08a10.168,10.168,0,0,0,7.385-4.746,8.215,8.215,0,0,0,1.186-4.348,8.008,8.008,0,0,0-.774-3.55,8.643,8.643,0,0,0-2.18-2.922,10.266,10.266,0,0,0-5.455-2.581l-.516-.087-32.87,0C1049.987-1464.672,1044.416-1464.665,1044.054-1464.619Zm13.838,7.323a1.966,1.966,0,0,1,1.577,1.347,1.818,1.818,0,0,1-1.415,2.187c-.212.049-.8.057-4.452.057-4.577,0-4.377.007-4.847-.208a2.212,2.212,0,0,1-.745-.617,1.736,1.736,0,0,1,.732-2.57c.487-.238.345-.231,4.822-.235C1056.328-1457.338,1057.722-1457.326,1057.892-1457.3Zm15.728,0a1.966,1.966,0,0,1,1.577,1.347,1.818,1.818,0,0,1-1.415,2.187c-.212.049-.8.057-4.452.057-4.577,0-4.377.007-4.847-.208a2.21,2.21,0,0,1-.745-.617,1.74,1.74,0,0,1,.737-2.574c.483-.234.345-.227,4.818-.231C1072.056-1457.338,1073.449-1457.326,1073.62-1457.3Zm15.727,0a1.966,1.966,0,0,1,1.577,1.347,1.818,1.818,0,0,1-1.415,2.187c-.212.049-.8.057-4.452.057-4.577,0-4.377.007-4.847-.208a2.211,2.211,0,0,1-.745-.617,1.74,1.74,0,0,1,.737-2.574c.483-.234.345-.227,4.818-.231C1087.783-1457.338,1089.177-1457.326,1089.347-1457.3Zm15.728,0a1.966,1.966,0,0,1,1.577,1.347,1.818,1.818,0,0,1-1.415,2.187c-.212.049-.8.057-4.452.057a41.4,41.4,0,0,1-4.435-.061,1.916,1.916,0,0,1-1.377-1.2,2.108,2.108,0,0,1-.033-1.015,1.96,1.96,0,0,1,.99-1.124c.483-.234.345-.227,4.818-.231C1103.51-1457.338,1104.9-1457.326,1105.075-1457.3Z" transform="translate(-818.986 -2449.158)" fill="#918c7e"/>
  </g>
</svg>
