<svg xmlns="http://www.w3.org/2000/svg" xmlns:xlink="http://www.w3.org/1999/xlink" width="259.772" height="135.732" viewBox="0 0 259.772 135.732">
  <defs>
    <linearGradient id="linear-gradient" x1="0.994" y1="-0.047" x2="-0.255" y2="1.319" gradientUnits="objectBoundingBox">
      <stop offset="0" stop-color="#f7931e"/>
      <stop offset="0.509" stop-color="#fbad0d"/>
      <stop offset="1" stop-color="#ffc200"/>
    </linearGradient>
  </defs>
  <path id="Path_143" data-name="Path 143" d="M2244.762,1271.68l-207.726-14.78c-4.963-.353-9.79,4.373-10.781,10.569l-9.3,58.12c-1.012,6.326,2.241,11.76,7.27,12.125l180.18,13.077,8.109,17.082c.593,1.248,2.174.842,2.532-.651l3.7-15.389,15.922,1.155c5.067.368,9.809-4.507,10.59-10.875l7.178-58.506C2253.2,1277.369,2249.763,1272.036,2244.762,1271.68Z" transform="translate(-2004.768 -1244.882)" fill="#9b9b9b" opacity="0.67"/>
  <path id="Path_144" data-name="Path 144" d="M2249.131,1270.069l-207.576-16.963c-4.961-.406-9.831,4.27-10.881,10.454l-9.852,58.018c-1.073,6.316,2.13,11.784,7.155,12.2l180.048,14.972,7.945,17.166c.582,1.254,2.166.865,2.538-.625l3.848-15.35,15.909,1.324c5.063.42,9.852-4.4,10.693-10.764l7.73-58.428C2257.514,1275.848,2254.128,1270.478,2249.131,1270.069Z" transform="translate(-2003.525 -1246.382)" fill="#e2e2e2"/>
  <g id="Group_130" data-name="Group 130" transform="translate(40.183 21.483)">
    <path id="Path_145" data-name="Path 145" d="M2059.187,1263.68c-5.958,0-11.7,5.166-12.933,11.525l-1.116,5.745c-1.23,6.333,2.433,11.712,8.3,12.037,6,.33,12.017-4.729,13.324-11.322l1.187-5.982C2069.259,1269.061,2065.282,1263.68,2059.187,1263.68Zm4.772,17.894c-.971,4.914-5.467,8.719-9.951,8.5-4.41-.219-7.191-4.267-6.263-9.033l1.126-5.773c.931-4.786,5.27-8.663,9.738-8.64,4.544.025,7.5,4.066,6.528,9Z" transform="translate(-2035.866 -1263.68)" fill="#919191"/>
    <path id="Path_146" data-name="Path 146" d="M2064.7,1309.327l-24.579-2.286a2.427,2.427,0,0,1-1.991-3.07l5.07-26.18a3.358,3.358,0,0,1,3.141-2.785l25.027.76a2.445,2.445,0,0,1,2.265,3.119l-5.518,27.706A3.346,3.346,0,0,1,2064.7,1309.327Z" transform="translate(-2038.071 -1259.209)" fill="url(#linear-gradient)"/>
    <path id="Path_147" data-name="Path 147" d="M2054.173,1295.965l-.546-6.489a4.426,4.426,0,0,0,2.287-3.038,3.007,3.007,0,0,0-2.66-3.837,4.194,4.194,0,0,0-4.048,3.458,3.239,3.239,0,0,0,1.028,3.205l-3,6.182Z" transform="translate(-2035.111 -1256.211)" fill="#f7f7f7"/>
  </g>
  <g id="Group_137" data-name="Group 137" transform="translate(87.036 29.348)">
    <path id="Path_148" data-name="Path 148" d="M2197.834,1325.778l-114.187-10.5a10.989,10.989,0,0,1-10.037-12.63l3.359-22.882a12.463,12.463,0,0,1,13.326-10.4l113.366,9.91a11.337,11.337,0,0,1,10.507,12.639l-2.864,23.238A12.411,12.411,0,0,1,2197.834,1325.778Z" transform="translate(-2073.487 -1269.319)" fill="#fff"/>
    <g id="Group_131" data-name="Group 131" transform="translate(15.206 17.21)">
      <path id="Path_149" data-name="Path 149" d="M2094.955,1288.376l3.277,2.2-1.97,2.472-3.275-2.4-.49,3.872-3.051-.276.592-3.892-3.876,1.783-1.18-2.751,3.8-1.564-3.257-2.228,1.931-2.47,3.268,2.419.525-3.887,3.045.272-.619,3.879,3.869-1.783,1.224,2.756Z" transform="translate(-2084.981 -1281.657)" fill="#666"/>
    </g>
    <g id="Group_132" data-name="Group 132" transform="translate(35.082 18.98)">
      <path id="Path_150" data-name="Path 150" d="M2110.01,1289.66l3.3,2.207-1.966,2.476-3.3-2.4-.478,3.88-3.062-.278.579-3.9-3.883,1.787-1.195-2.758,3.813-1.567-3.277-2.232,1.93-2.476,3.287,2.424.513-3.9,3.056.272-.607,3.889,3.876-1.787,1.239,2.763Z" transform="translate(-2100.005 -1282.926)" fill="#666"/>
    </g>
    <g id="Group_133" data-name="Group 133" transform="translate(53.607 20.628)">
      <path id="Path_151" data-name="Path 151" d="M2124.042,1290.858l3.315,2.212-1.966,2.48-3.315-2.407-.466,3.889-3.073-.278.568-3.91-3.89,1.79-1.208-2.763,3.821-1.569-3.3-2.237,1.928-2.481,3.306,2.43.5-3.9,3.068.273-.6,3.9,3.883-1.79,1.251,2.769Z" transform="translate(-2114.008 -1284.108)" fill="#666"/>
    </g>
    <g id="Group_134" data-name="Group 134" transform="translate(72.2 22.284)">
      <path id="Path_152" data-name="Path 152" d="M2138.126,1292.06l3.334,2.216-1.963,2.486-3.335-2.414-.454,3.9-3.085-.279.557-3.918-3.9,1.794-1.22-2.77,3.827-1.57-3.314-2.243,1.926-2.487,3.325,2.437.492-3.912,3.078.275-.586,3.9,3.891-1.792,1.264,2.774Z" transform="translate(-2128.062 -1285.295)" fill="#666"/>
    </g>
    <g id="Group_135" data-name="Group 135" transform="translate(90.858 23.945)">
      <path id="Path_153" data-name="Path 153" d="M2152.262,1293.265l3.351,2.222-1.961,2.491-3.355-2.42-.442,3.906-3.1-.28.547-3.925-3.9,1.8-1.234-2.774L2146,1292.7l-3.333-2.248,1.925-2.491,3.344,2.442.479-3.921,3.09.275-.574,3.914,3.9-1.8,1.278,2.78Z" transform="translate(-2142.166 -1286.486)" fill="#666"/>
    </g>
    <g id="Group_136" data-name="Group 136" transform="translate(109.586 25.612)">
      <path id="Path_154" data-name="Path 154" d="M2166.447,1294.475l3.371,2.226-1.959,2.5-3.374-2.424-.431,3.913-3.108-.281.535-3.935-3.911,1.8-1.247-2.781,3.842-1.578-3.351-2.253,1.922-2.5,3.364,2.447.468-3.929,3.1.276-.563,3.922,3.9-1.8,1.291,2.785Z" transform="translate(-2156.322 -1287.681)" fill="#666"/>
    </g>
  </g>
</svg>
