<svg xmlns="http://www.w3.org/2000/svg" xmlns:xlink="http://www.w3.org/1999/xlink" width="239.339" height="239.339" viewBox="0 0 239.339 239.339">
  <defs>
    <linearGradient id="linear-gradient" y1="0.5" x2="1" y2="0.5" gradientUnits="objectBoundingBox">
      <stop offset="0" stop-color="#ccc"/>
      <stop offset="0.52" stop-color="#dbbc63"/>
      <stop offset="1" stop-color="#eaad00"/>
    </linearGradient>
  </defs>
  <g id="Group_482" data-name="Group 482" transform="translate(-732.968 -400.419)" opacity="0.53">
    <path id="Path_458" data-name="Path 458" d="M2367.556,1256.589H2349.65a104.509,104.509,0,0,0-5.65-11.616l10.361-11.538a6.5,6.5,0,0,0-.493-9.178l-38.172-34.276a6.5,6.5,0,0,0-9.177.494l-9.94,11.067a103.424,103.424,0,0,0-10.642-4.144v-12.9a6.494,6.494,0,0,0-6.5-6.5h-51.3a6.5,6.5,0,0,0-6.5,6.5v12.9a102.243,102.243,0,0,0-11.7,4.626l-10.373-11.549a6.5,6.5,0,0,0-9.171-.494l-38.177,34.276a6.505,6.505,0,0,0-.493,9.178l11.269,12.55a102.7,102.7,0,0,0-5.064,10.6h-16.717a6.5,6.5,0,0,0-6.5,6.5v51.3a6.5,6.5,0,0,0,6.5,6.5h12.036a103.047,103.047,0,0,0,5.881,17.083l-11.865,13.219a6.5,6.5,0,0,0,.487,9.178l38.176,34.276a6.505,6.505,0,0,0,9.18-.494l7.417-8.258a103.074,103.074,0,0,0,19.113,8.478v16.473a6.5,6.5,0,0,0,6.5,6.5h51.3a6.494,6.494,0,0,0,6.5-6.5v-16.473a103.268,103.268,0,0,0,21.668-9.952l8.738,9.733a6.5,6.5,0,0,0,9.173.494l38.176-34.276a6.5,6.5,0,0,0,.494-9.178l-14.487-16.132a103.306,103.306,0,0,0,4.625-14.17h13.231a6.493,6.493,0,0,0,6.5-6.5v-51.3A6.494,6.494,0,0,0,2367.556,1256.589Zm-112.28,108.062a71.446,71.446,0,1,1,71.446-71.446A71.449,71.449,0,0,1,2255.277,1364.651Z" transform="translate(-1401.745 -777.581)" opacity="0.18" fill="url(#linear-gradient)"/>
    <g id="Ellipse_62" data-name="Ellipse 62" transform="translate(785.089 448.483)" fill="rgba(255,194,0,0.16)" stroke="#707070" stroke-width="1">
      <ellipse cx="68.794" cy="67.213" rx="68.794" ry="67.213" stroke="none"/>
      <ellipse cx="68.794" cy="67.213" rx="68.294" ry="66.713" fill="none"/>
    </g>
    <g id="Ellipse_63" data-name="Ellipse 63" transform="translate(834.028 499.228)" fill="#4c4c4c" stroke="#707070" stroke-width="1">
      <circle cx="18.187" cy="18.187" r="18.187" stroke="none"/>
      <circle cx="18.187" cy="18.187" r="17.687" fill="none"/>
    </g>
  </g>
</svg>
