<svg xmlns="http://www.w3.org/2000/svg" width="22.695" height="24.856" viewBox="0 0 22.695 24.856">
  <path id="Company_Icon" data-name="Company Icon" d="M6.161,2V4.161H4V26.856H9.944V21.993h2.161v4.863h5.944V4.161H15.888V2ZM7.242,6.323H8.323V7.4H7.242Zm2.161,0h1.081V7.4H9.4Zm2.161,0h1.081V7.4H11.565Zm2.161,0h1.081V7.4H13.726Zm5.4,2.161v2.161h1.081v1.081H19.13v1.081h1.081v1.081H19.13v1.081h1.081v1.081H19.13V17.13h1.081v1.081H19.13v1.081h1.081v1.081H19.13v1.081h1.081v1.081H19.13v1.081h1.081v1.081H19.13v2.161h7.565V8.484Zm-11.888.54H8.323v2.161H7.242Zm2.161,0h1.081v2.161H9.4Zm2.161,0h1.081v2.161H11.565Zm2.161,0h1.081v2.161H13.726Zm7.565,1.621h1.081v1.081H21.291Zm2.161,0h1.081v1.081H23.453ZM7.242,12.267H8.323v2.161H7.242Zm2.161,0h1.081v2.161H9.4Zm2.161,0h1.081v2.161H11.565Zm2.161,0h1.081v2.161H13.726Zm7.565.54h1.081v1.081H21.291Zm2.161,0h1.081v1.081H23.453Zm-2.161,2.161h1.081v1.081H21.291Zm2.161,0h1.081v1.081H23.453Zm-16.211.54H8.323V17.67H7.242Zm2.161,0h1.081V17.67H9.4Zm2.161,0h1.081V17.67H11.565Zm2.161,0h1.081V17.67H13.726Zm7.565,1.621h1.081v1.081H21.291Zm2.161,0h1.081v1.081H23.453ZM7.242,18.751H8.323v2.161H7.242Zm2.161,0h1.081v2.161H9.4Zm2.161,0h1.081v2.161H11.565Zm2.161,0h1.081v2.161H13.726Zm7.565.54h1.081v1.081H21.291Zm2.161,0h1.081v1.081H23.453Zm-2.161,2.161h1.081v1.081H21.291Zm2.161,0h1.081v1.081H23.453Zm-16.211.54H8.323v2.7H7.242Zm6.484,0h1.081v2.7H13.726Zm7.565,1.621h1.081v1.081H21.291Zm2.161,0h1.081v1.081H23.453Z" transform="translate(-4 -2)" fill="#7a7a7a"/>
</svg>
