<svg xmlns="http://www.w3.org/2000/svg" width="16" height="20.44" viewBox="0 0 16 20.44">
  <g id="Password" transform="translate(-76 -26.053)">
    <path id="Path_229" data-name="Path 229" d="M90,233.948H78a2.006,2.006,0,0,0-2,2v7.2a2.006,2.006,0,0,0,2,2H90a2.006,2.006,0,0,0,2-2v-7.2A2.006,2.006,0,0,0,90,233.948Zm-9.195,6.019a.44.44,0,0,1-.44.762l-.726-.419v.838a.44.44,0,1,1-.88,0v-.838l-.726.419a.44.44,0,1,1-.44-.762l.726-.419-.726-.419a.44.44,0,1,1,.44-.762l.726.419v-.838a.44.44,0,1,1,.88,0v.838l.726-.419a.44.44,0,0,1,.44.762l-.726.419Zm4.8,0a.44.44,0,0,1-.44.762l-.726-.419v.838a.44.44,0,1,1-.88,0v-.838l-.726.419a.44.44,0,1,1-.44-.762l.726-.419-.726-.419a.44.44,0,1,1,.44-.762l.726.419v-.838a.44.44,0,1,1,.88,0v.838l.726-.419a.44.44,0,0,1,.44.762l-.726.419Zm4.8,0a.44.44,0,0,1-.44.762l-.726-.419v.838a.44.44,0,0,1-.88,0v-.838l-.726.419a.44.44,0,0,1-.44-.762l.726-.419-.726-.419a.44.44,0,1,1,.44-.762l.726.419v-.838a.44.44,0,1,1,.88,0v.838l.726-.419a.44.44,0,0,1,.44.762l-.726.419Z" transform="translate(0 -198.656)" fill="#918c7e"/>
    <path id="Path_230" data-name="Path 230" d="M138.983,31.292a4.36,4.36,0,1,1,8.72,0v3.12h.88v-3.12a5.24,5.24,0,0,0-10.48,0v3.12h.88Z" transform="translate(-59.343)" fill="#918c7e"/>
  </g>
</svg>
