<svg xmlns="http://www.w3.org/2000/svg" width="178.836" height="186.607" viewBox="0 0 178.836 186.607">
  <g id="Group_479" data-name="Group 479" transform="translate(-98.164 -471.393)" opacity="0.69">
    <g id="Group_478" data-name="Group 478" transform="translate(178.776 562.819)">
      <g id="Group_477" data-name="Group 477" transform="translate(0 80.793)">
        <g id="Rectangle_436" data-name="Rectangle 436" transform="translate(0.224 0.388)" fill="#4c4c4c" stroke="#070601" stroke-width="3" opacity="0.49">
          <rect width="95" height="14" rx="7" stroke="none"/>
          <rect x="1.5" y="1.5" width="92" height="11" rx="5.5" fill="none"/>
        </g>
        <g id="Path_452" data-name="Path 452" transform="translate(80.793 1.107)" fill="#ffc200">
          <path d="M 6.087163925170898 10.67432403564453 C 5.111114025115967 10.67432403564453 4.205304145812988 10.35968399047852 3.236523866653442 9.684133529663086 L 3.229923963546753 9.679523468017578 L 3.22326397895813 9.674983978271484 C 3.076793909072876 9.575174331665039 2.884403944015503 9.427614212036133 2.45297384262085 8.93718433380127 L 2.441723823547363 8.924393653869629 L 2.430193901062012 8.911873817443848 C 1.967943906784058 8.409863471984863 1.500003933906555 7.278403759002686 1.500003933906555 6.087163925170898 C 1.500003933906555 3.557793855667114 3.557793855667114 1.500003933906555 6.087163925170898 1.500003933906555 C 8.616534233093262 1.500003933906555 10.67432403564453 3.557793855667114 10.67432403564453 6.087163925170898 C 10.67432403564453 6.96307373046875 10.424973487854 7.766633987426758 9.865843772888184 8.692644119262695 L 9.861614227294922 8.699644088745117 L 9.857463836669922 8.706684112548828 C 9.280564308166504 9.686083793640137 7.891024112701416 10.67432403564453 6.087163925170898 10.67432403564453 Z" stroke="none"/>
          <path d="M 6.087163925170898 3.000003814697266 C 4.384893894195557 3.000003814697266 3.000003814697266 4.384893894195557 3.000003814697266 6.087163925170898 C 3.000003814697266 7.024333953857422 3.39116382598877 7.740843772888184 3.53364372253418 7.895803928375244 L 3.579203605651855 7.946424007415771 C 3.921713829040527 8.335773468017578 4.027974128723145 8.408184051513672 4.067974090576172 8.435443878173828 L 4.094513893127441 8.453743934631348 C 5.005094051361084 9.088713645935059 5.612793922424316 9.174324035644531 6.087163925170898 9.174324035644531 C 7.238654136657715 9.174324035644531 8.205293655395508 8.556083679199219 8.565013885498047 7.94538402557373 L 8.581764221191406 7.917304039001465 C 9.103923797607422 7.052534103393555 9.174324035644531 6.506874084472656 9.174324035644531 6.087163925170898 C 9.174324035644531 4.384893894195557 7.78943395614624 3.000003814697266 6.087163925170898 3.000003814697266 M 6.087163925170898 3.814697265625e-06 C 9.449013710021973 3.814697265625e-06 12.17432403564453 2.725314140319824 12.17432403564453 6.087163925170898 C 12.17432403564453 7.223464012145996 11.86297416687012 8.287054061889648 11.1499137878418 9.467984199523926 C 10.25929355621338 10.97997379302979 8.312704086303711 12.17432403564453 6.087163925170898 12.17432403564453 C 4.806303977966309 12.17432403564453 3.617834091186523 11.77871417999268 2.378543853759766 10.91452407836914 C 2.07966423034668 10.71084403991699 1.795333862304688 10.46061420440674 1.326733589172363 9.927933692932129 C 0.6288137435913086 9.169983863830566 3.814697265625e-06 7.702003955841064 3.814697265625e-06 6.087163925170898 C 3.814697265625e-06 2.725314140319824 2.725314140319824 3.814697265625e-06 6.087163925170898 3.814697265625e-06 Z" stroke="none" fill="#707070"/>
        </g>
        <g id="Path_453" data-name="Path 453" transform="translate(2.214 1.107)" fill="#ffc200">
          <path d="M 6.087163925170898 10.67432403564453 C 5.111114025115967 10.67432403564453 4.205304145812988 10.35968399047852 3.236523866653442 9.684133529663086 L 3.229923963546753 9.679523468017578 L 3.22326397895813 9.674983978271484 C 3.076793909072876 9.575174331665039 2.884403944015503 9.427614212036133 2.45297384262085 8.93718433380127 L 2.441723823547363 8.924393653869629 L 2.430193901062012 8.911873817443848 C 1.967943906784058 8.409863471984863 1.500003933906555 7.278403759002686 1.500003933906555 6.087163925170898 C 1.500003933906555 3.557793855667114 3.557793855667114 1.500003933906555 6.087163925170898 1.500003933906555 C 8.616534233093262 1.500003933906555 10.67432403564453 3.557793855667114 10.67432403564453 6.087163925170898 C 10.67432403564453 6.96307373046875 10.424973487854 7.766633987426758 9.865843772888184 8.692644119262695 L 9.861614227294922 8.699644088745117 L 9.857463836669922 8.706684112548828 C 9.280564308166504 9.686083793640137 7.891024112701416 10.67432403564453 6.087163925170898 10.67432403564453 Z" stroke="none"/>
          <path d="M 6.087163925170898 3.000003814697266 C 4.384893894195557 3.000003814697266 3.000003814697266 4.384893894195557 3.000003814697266 6.087163925170898 C 3.000003814697266 7.024333953857422 3.39116382598877 7.740843772888184 3.53364372253418 7.895803928375244 L 3.579203605651855 7.946424007415771 C 3.921713829040527 8.335773468017578 4.027974128723145 8.408184051513672 4.067974090576172 8.435443878173828 L 4.094513893127441 8.453743934631348 C 5.005094051361084 9.088713645935059 5.612793922424316 9.174324035644531 6.087163925170898 9.174324035644531 C 7.238654136657715 9.174324035644531 8.205293655395508 8.556083679199219 8.565013885498047 7.94538402557373 L 8.581764221191406 7.917304039001465 C 9.103923797607422 7.052534103393555 9.174324035644531 6.506874084472656 9.174324035644531 6.087163925170898 C 9.174324035644531 4.384893894195557 7.78943395614624 3.000003814697266 6.087163925170898 3.000003814697266 M 6.087163925170898 3.814697265625e-06 C 9.449013710021973 3.814697265625e-06 12.17432403564453 2.725314140319824 12.17432403564453 6.087163925170898 C 12.17432403564453 7.223464012145996 11.86297416687012 8.287054061889648 11.1499137878418 9.467984199523926 C 10.25929355621338 10.97997379302979 8.312704086303711 12.17432403564453 6.087163925170898 12.17432403564453 C 4.806303977966309 12.17432403564453 3.617834091186523 11.77871417999268 2.378543853759766 10.91452407836914 C 2.07966423034668 10.71084403991699 1.795333862304688 10.46061420440674 1.326733589172363 9.927933692932129 C 0.6288137435913086 9.169983863830566 3.814697265625e-06 7.702003955841064 3.814697265625e-06 6.087163925170898 C 3.814697265625e-06 2.725314140319824 2.725314140319824 3.814697265625e-06 6.087163925170898 3.814697265625e-06 Z" stroke="none" fill="#707070"/>
        </g>
      </g>
      <g id="Rectangle_437" data-name="Rectangle 437" transform="translate(26.224 76.181)" fill="#4c4c4c" stroke="#707070" stroke-width="1">
        <rect width="42" height="5" stroke="none"/>
        <rect x="0.5" y="0.5" width="41" height="4" fill="none"/>
      </g>
      <path id="Path_454" data-name="Path 454" d="M0,0H59.765V25.455H0Z" transform="translate(35.416 50.911)" fill="#ffc200"/>
      <path id="Rectangle_439" data-name="Rectangle 439" d="M4,0H17a4,4,0,0,1,4,4V34a0,0,0,0,1,0,0H0a0,0,0,0,1,0,0V4A4,4,0,0,1,4,0Z" transform="translate(15.224 42.181)" fill="#ffc200"/>
      <path id="Rectangle_440" data-name="Rectangle 440" d="M4,0H15a0,0,0,0,1,0,0V16a0,0,0,0,1,0,0H4a4,4,0,0,1-4-4V4A4,4,0,0,1,4,0Z" transform="translate(1.224 60.181)" fill="#ffc200"/>
      <g id="Rectangle_441" data-name="Rectangle 441" transform="translate(21.224 47.181)" fill="#bfeafb" stroke="#707070" stroke-width="1">
        <rect width="11" height="17" stroke="none"/>
        <rect x="0.5" y="0.5" width="10" height="16" fill="none"/>
      </g>
      <g id="Rectangle_442" data-name="Rectangle 442" transform="translate(37.224 47.181)" fill="#baafaf" stroke="#707070" stroke-width="1">
        <rect width="16" height="5" stroke="none"/>
        <rect x="0.5" y="0.5" width="15" height="4" fill="none"/>
      </g>
      <g id="Rectangle_443" data-name="Rectangle 443" transform="translate(42.224 36.181)" fill="#baafaf" stroke="#707070" stroke-width="1">
        <path d="M0,0H0A3,3,0,0,1,3,3v8a0,0,0,0,1,0,0H0a0,0,0,0,1,0,0V0A0,0,0,0,1,0,0Z" stroke="none"/>
        <path d="M.7.5h0A1.8,1.8,0,0,1,2.5,2.3v8a.2.2,0,0,1-.2.2H.7a.2.2,0,0,1-.2-.2V.7A.2.2,0,0,1,.7.5Z" fill="none"/>
      </g>
      <g id="Rectangle_444" data-name="Rectangle 444" transform="translate(75.224 53.181)" fill="#8c5807" stroke="#707070" stroke-width="1">
        <rect width="18" height="11" stroke="none"/>
        <rect x="0.5" y="0.5" width="17" height="10" fill="none"/>
      </g>
      <g id="Rectangle_445" data-name="Rectangle 445" transform="translate(1.224 72.181)" fill="#63460b" stroke="#707070" stroke-width="1">
        <rect width="94" height="4" stroke="none"/>
        <rect x="0.5" y="0.5" width="93" height="3" fill="none"/>
      </g>
      <g id="Subtraction_1" data-name="Subtraction 1" transform="translate(84.114 50.911) rotate(180)" fill="#4c4c4c">
        <path d="M 6.632572174072266 6.140380382537842 C 5.026862144470215 6.140380382537842 3.508632183074951 5.504340648651123 2.357562065124512 4.349430561065674 C 1.324520826339722 3.312733888626099 0.6874239444732666 1.961140155792236 0.5336936712265015 0.5000004172325134 L 12.73071765899658 0.5000004172325134 C 12.57700347900391 1.961248397827148 11.93998622894287 3.312880516052246 10.9070520401001 4.349460601806641 C 9.755802154541016 5.504330635070801 8.23773193359375 6.140380382537842 6.632572174072266 6.140380382537842 Z" stroke="none"/>
        <path d="M 6.632572174072266 5.640380382537842 C 8.1038818359375 5.640380382537842 9.49619197845459 5.056530475616455 10.55288219451904 3.996530532836914 C 11.37306118011475 3.173441171646118 11.92240428924561 2.134180307388306 12.14936637878418 1.000000476837158 L 1.115068316459656 1.000000476837158 C 1.342057824134827 2.134119033813477 1.891453385353088 3.173309326171875 2.711702108383179 3.996460437774658 C 3.768272161483765 5.056560516357422 5.160732269287109 5.640380382537842 6.632572174072266 5.640380382537842 M 6.632572174072266 6.640380382537842 C 4.893062114715576 6.640380382537842 3.249022245407104 5.952150344848633 2.003422260284424 4.702390193939209 C 0.760012149810791 3.454590320587158 0.04834214970469475 1.784670472145081 2.148437488358468e-06 4.296875033560354e-07 L 13.26440238952637 4.296875033560354e-07 C 13.21606254577637 1.784910440444946 12.50439262390137 3.454830408096313 11.26123237609863 4.702390193939209 C 10.01538181304932 5.952150344848633 8.371822357177734 6.640380382537842 6.632572174072266 6.640380382537842 Z" stroke="none" fill="#707070"/>
      </g>
      <line id="Line_55" data-name="Line 55" y1="39.843" x2="15.495" transform="translate(78.026 4.98)" fill="none" stroke="#707070" stroke-width="3"/>
      <ellipse id="Ellipse_58" data-name="Ellipse 58" cx="3.5" cy="4" rx="3.5" ry="4" transform="translate(91.224 0.181)" fill="#ffc200"/>
      <line id="Line_56" data-name="Line 56" x1="1.107" y2="45.377" transform="translate(94.628 8.301)" fill="none" stroke="#707070" stroke-width="1"/>
    </g>
    <path id="Path_456" data-name="Path 456" d="M69.726,129.491,40.855,89.517,0,0" transform="translate(110.71 494.753)" fill="none" stroke="#707070" stroke-width="2"/>
    <path id="Path_455" data-name="Path 455" d="M76.366,135.024,53.678,85.774,0,0" transform="translate(116.244 487.006)" fill="none" stroke="#707070" stroke-width="2"/>
    <line id="Line_57" data-name="Line 57" x1="15.495" y2="8.854" transform="translate(163.835 591.041)" fill="none" stroke="#707070" stroke-width="2"/>
    <line id="Line_58" data-name="Line 58" x1="17.708" y2="8.854" transform="translate(146.126 563.372)" fill="none" stroke="#707070" stroke-width="2"/>
    <line id="Line_59" data-name="Line 59" x1="14.388" y2="7.747" transform="translate(131.739 532.383)" fill="none" stroke="#707070" stroke-width="2"/>
    <line id="Line_60" data-name="Line 60" y1="6.641" x2="9.961" transform="translate(116.244 501.394)" fill="none" stroke="#707070" stroke-width="2"/>
    <line id="Line_61" data-name="Line 61" y2="30.989" transform="translate(179.329 591.041)" fill="none" stroke="#707070" stroke-width="1"/>
    <line id="Line_62" data-name="Line 62" x2="28.776" y2="22.135" transform="translate(163.835 599.895)" fill="none" stroke="#707070" stroke-width="1"/>
    <line id="Line_63" data-name="Line 63" y2="36.523" transform="translate(163.835 563.372)" fill="none" stroke="#707070" stroke-width="1"/>
    <line id="Line_64" data-name="Line 64" x2="32.096" y2="18.815" transform="translate(146.126 572.226)" fill="none" stroke="#707070" stroke-width="1"/>
    <line id="Line_65" data-name="Line 65" x2="2.214" y2="39.843" transform="translate(143.913 532.383)" fill="none" stroke="#707070" stroke-width="1"/>
    <line id="Line_66" data-name="Line 66" x2="32.096" y2="23.242" transform="translate(131.739 540.13)" fill="none" stroke="#707070" stroke-width="1"/>
    <line id="Line_67" data-name="Line 67" x2="5.534" y2="38.736" transform="translate(126.205 501.394)" fill="none" stroke="#707070" stroke-width="1"/>
    <line id="Line_68" data-name="Line 68" x2="27.669" y2="24.349" transform="translate(116.244 508.034)" fill="none" stroke="#707070" stroke-width="1"/>
    <g id="Rectangle_447" data-name="Rectangle 447" transform="translate(98.164 478.587) rotate(-30)" fill="#ffc200" stroke="#707070" stroke-width="1">
      <path d="M5,0H9.388a5,5,0,0,1,5,5V26.562a0,0,0,0,1,0,0H0a0,0,0,0,1,0,0V5A5,5,0,0,1,5,0Z" stroke="none"/>
      <path d="M5,.5H9.388a4.5,4.5,0,0,1,4.5,4.5V25.562a.5.5,0,0,1-.5.5H1a.5.5,0,0,1-.5-.5V5A4.5,4.5,0,0,1,5,.5Z" fill="none"/>
    </g>
    <g id="Ellipse_59" data-name="Ellipse 59" transform="translate(105 478)" fill="#ffc200" stroke="#707070" stroke-width="2">
      <circle cx="3.5" cy="3.5" r="3.5" stroke="none"/>
      <circle cx="3.5" cy="3.5" r="2.5" fill="none"/>
    </g>
    <line id="Line_69" data-name="Line 69" x2="160.48" y2="85.22" transform="translate(110.71 478.152)" fill="none" stroke="#707070" stroke-width="1"/>
    <line id="Line_70" data-name="Line 70" x1="135.024" y1="125.064" transform="translate(116.244 481.472)" fill="none" stroke="#707070" stroke-width="1"/>
    <line id="Line_71" data-name="Line 71" y2="76.366" transform="translate(108.497 495.86)" fill="none" stroke="#707070" stroke-width="1"/>
    <g id="Path_457" data-name="Path 457" transform="translate(114.584 590.488) rotate(180)" fill="#ffc200">
      <path d="M 6.087163925170898 24.48565673828125 L 0.5821371078491211 20.81555366516113 L 6.095730304718018 1.768587231636047 L 7.267404079437256 5.674151420593262 L 11.59329986572266 20.81481552124023 L 6.087163925170898 24.48565673828125 Z" stroke="none"/>
      <path d="M 6.104290962219238 3.537195205688477 L 1.164272308349609 20.60272216796875 L 6.087163925170898 23.88472557067871 L 11.01227378845215 20.60124397277832 L 6.787764072418213 5.815431594848633 L 6.104290962219238 3.537195205688477 M 6.087163925170898 1.9073486328125e-06 L 7.74730396270752 5.533781051635742 L 12.17432403564453 21.02838134765625 L 6.087163925170898 25.08658027648926 L 3.814697265625e-06 21.02838134765625 L 6.087163925170898 1.9073486328125e-06 Z" stroke="none" fill="#707070"/>
    </g>
    <g id="Ellipse_60" data-name="Ellipse 60" transform="translate(106 563)" fill="#8f614a" stroke="#707070" stroke-width="1">
      <circle cx="2.5" cy="2.5" r="2.5" stroke="none"/>
      <circle cx="2.5" cy="2.5" r="2" fill="none"/>
    </g>
    <g id="Ellipse_61" data-name="Ellipse 61" transform="translate(106 572)" fill="#94634c" stroke="#707070" stroke-width="1">
      <circle cx="2.5" cy="2.5" r="2.5" stroke="none"/>
      <circle cx="2.5" cy="2.5" r="2" fill="none"/>
    </g>
  </g>
</svg>
