<svg xmlns="http://www.w3.org/2000/svg" width="19.761" height="19.283" viewBox="0 0 21.761 19.283">
  <path id="Path_200" data-name="Path 200" d="M55.339-490.445a4.253,4.253,0,0,0-1.79.567c-.653.419-8.026,5.505-8.2,5.649a2.847,2.847,0,0,0-.324.345l-.129.172.005,5.333c.005,5.847-.005,5.625.314,6.163a2.387,2.387,0,0,0,1.152.92l.309.1,8.875.012c5.577.008,8.993,0,9.2-.029a1.982,1.982,0,0,0,1.1-.456,2.3,2.3,0,0,0,.695-.945c.093-.214.1-.489.113-5.538.01-3.587-.005-5.366-.041-5.473a1.484,1.484,0,0,0-.221-.357c-.2-.234-8.314-5.875-8.741-6.076A4.615,4.615,0,0,0,55.339-490.445Zm2.1,4.5c.947.156,1.58.55,1.713,1.072a1.377,1.377,0,0,1-.165.953,3.039,3.039,0,0,1-1.1.855,9.011,9.011,0,0,1-2.912.579l-.648.029.062.2q.232.727,1.543.727a3.565,3.565,0,0,0,2-.641,3.075,3.075,0,0,1,.365-.222,1.708,1.708,0,0,1,.232.107l.206.107-.221.247a4.2,4.2,0,0,1-2.593,1.2,3.458,3.458,0,0,1-2.8-.559c-1.585-1.241-.684-3.468,1.775-4.372A4.924,4.924,0,0,1,57.443-485.942Zm7.985,8.078c-.005,2.288-.021,4.211-.041,4.277-.031.107-.18,0-2.886-2.169a25.655,25.655,0,0,1-2.794-2.326c.185-.148,5.654-3.932,5.69-3.936C65.418-482.022,65.428-480.149,65.428-477.864Zm-16.284-2.063,2.722,1.869-1.358,1.064c-3.18,2.486-4.3,3.349-4.337,3.324-.015-.012-.031-1.89-.031-4.174v-4.146l.144.1C46.361-481.842,47.647-480.954,49.145-479.927Zm4.116,2.831a3.974,3.974,0,0,0,1.25.6,4.449,4.449,0,0,0,3.735-.579s-.453-.811.406-.275,3.03,2.42,3.03,2.42c1.667,1.331,3.025,2.436,3.015,2.461a1.307,1.307,0,0,1-.319.164l-.309.123-8.165.012c-8.093.008-8.165.008-8.443-.074a1.893,1.893,0,0,1-.478-.226l-.2-.14.489-.386c1.235-.982,5.567-4.343,5.6-4.343A3.161,3.161,0,0,1,53.261-477.1Z" transform="translate(-44.9 490.464)" fill="#7a7a7a"/>
</svg>
