<svg xmlns="http://www.w3.org/2000/svg" xmlns:xlink="http://www.w3.org/1999/xlink" width="83.894" height="80.939" viewBox="0 0 83.894 80.939">
  <defs>
    <filter id="Path_1" x="0" y="0" width="83.894" height="80.939" filterUnits="userSpaceOnUse">
      <feOffset dy="3" input="SourceAlpha"/>
      <feGaussianBlur stdDeviation="3" result="blur"/>
      <feFlood flood-opacity="0.322"/>
      <feComposite operator="in" in2="blur"/>
      <feComposite in="SourceGraphic"/>
    </filter>
  </defs>
  <g transform="matrix(1, 0, 0, 1, 0, 0)" filter="url(#Path_1)">
    <path id="Path_1-2" data-name="Path 1" d="M14.071,58.3l4.07-3.089L22.774,57.4l-1.732-4.746L24.6,49.017l-5.137.158-2.435-4.446-1.442,4.846-5.067.894,4.252,2.841-.7,4.988Zm18.876,4.641,1.947-4.672,5.126-.374L36.1,54.631l1.228-4.9-4.376,2.657-4.376-2.657,1.228,4.9-3.931,3.262L31,58.267l1.947,4.672ZM17.787,27.608a46.342,46.342,0,0,0,7.609-3.32c2.51,2.284,4.14,4.883,4.268,8.04H36.25c.129-3.157,1.759-5.756,4.268-8.04a46.8,46.8,0,0,0,7.609,3.32c7.014,2.573,3.587,7.272-.5,11.228a21.279,21.279,0,0,1-29.343,0c-4.033-3.9-7.556-8.64-.493-11.228Zm10-6.53c.107-.863-2.488-4.13-2.96-5.7A5.632,5.632,0,0,1,24.56,9.6c.445-.663.252-1.852.252-2.762,0-9.108,16.264-9.118,16.264,0,0,1.152-.268,2.031.37,2.936,1.067,1.515.515,4.2-.386,5.614-.574,1.647-3.3,4.767-3.1,5.7.161,4.667-10.2,4.514-10.167-.011ZM65.894,44.487,62.746,40.5l2.236-4.546-4.842,1.7-3.711-3.494L56.59,39.2l-4.531,2.389L57,43l.912,4.972L60.8,43.8l5.094.684ZM51.823,58.3l-.692-5,4.252-2.841-5.062-.9-1.437-4.846-2.435,4.446L41.307,49l3.561,3.641-1.748,4.756L47.752,55.2l4.07,3.1ZM0,44.482,5.1,43.8,8,47.975l.917-4.967,4.939-1.41L9.32,39.209l.161-5.041L5.765,37.663.912,35.953,3.148,40.5,0,44.482Z" transform="translate(9 6)" fill="#fff"/>
  </g>
</svg>
