<svg xmlns="http://www.w3.org/2000/svg" width="14.651" height="16.177" viewBox="0 0 14.651 16.177">
  <path id="Path_303" data-name="Path 303" d="M21.1,14.853a4.66,4.66,0,0,1-6.533-.025,4.582,4.582,0,0,1-.024-6.487h0L21.1,1.826l.82-.814a3.5,3.5,0,0,1,4.92,0,3.438,3.438,0,0,1,0,4.886l-2.1,2.064L19.609,13l0,0a2.294,2.294,0,0,1-3.192-.023,2.227,2.227,0,0,1-.023-3.153l0,0,.805-.795,4.026-3.976.8.8-4.831,4.771a1.114,1.114,0,0,0,0,1.59,1.149,1.149,0,0,0,1.61,0l7.215-7.126,0,0,.027-.023a2.292,2.292,0,0,0,0-3.257,2.331,2.331,0,0,0-3.279,0l-.024.027h0l-.82.814L15.36,9.154a3.437,3.437,0,0,0,0,4.885,3.5,3.5,0,0,0,4.919,0l5.74-5.7.82-.814.82.814-.82.814-5.739,5.7Z" transform="translate(-13.208)" fill="#ffc200"/>
</svg>
