<svg xmlns="http://www.w3.org/2000/svg" xmlns:xlink="http://www.w3.org/1999/xlink" width="61.271" height="61.271" viewBox="0 0 61.271 61.271">
  <defs>
    <linearGradient id="linear-gradient" y1="0.5" x2="1" y2="0.5" gradientUnits="objectBoundingBox">
      <stop offset="0" stop-color="#ccc"/>
      <stop offset="0.52" stop-color="#dbbc63"/>
      <stop offset="1" stop-color="#eaad00"/>
    </linearGradient>
  </defs>
  <path id="Path_140" data-name="Path 140" d="M2117.32,1210.119h-4.584a26.433,26.433,0,0,0-1.446-2.973l2.653-2.954a1.665,1.665,0,0,0-.126-2.35l-9.773-8.775a1.663,1.663,0,0,0-2.349.127l-2.545,2.833a26.244,26.244,0,0,0-2.724-1.06v-3.3a1.663,1.663,0,0,0-1.663-1.664h-13.134a1.664,1.664,0,0,0-1.664,1.664v3.3a26.226,26.226,0,0,0-2.994,1.183l-2.655-2.956a1.663,1.663,0,0,0-2.349-.127l-9.772,8.775a1.664,1.664,0,0,0-.127,2.35l2.885,3.212a26.337,26.337,0,0,0-1.3,2.715h-4.28a1.664,1.664,0,0,0-1.663,1.663v13.134a1.664,1.664,0,0,0,1.663,1.664h3.082a26.347,26.347,0,0,0,1.506,4.372l-3.039,3.384a1.663,1.663,0,0,0,.126,2.349l9.772,8.775a1.664,1.664,0,0,0,2.35-.126l1.9-2.114a26.412,26.412,0,0,0,4.894,2.17v4.218a1.664,1.664,0,0,0,1.664,1.663h13.134a1.663,1.663,0,0,0,1.663-1.663v-4.218a26.362,26.362,0,0,0,5.547-2.547l2.237,2.491a1.663,1.663,0,0,0,2.349.126l9.772-8.775a1.663,1.663,0,0,0,.127-2.349l-3.709-4.13a26.368,26.368,0,0,0,1.185-3.626h3.386a1.664,1.664,0,0,0,1.664-1.664v-13.134A1.664,1.664,0,0,0,2117.32,1210.119Zm-28.743,27.663a18.289,18.289,0,1,1,18.29-18.29A18.29,18.29,0,0,1,2088.577,1237.782Z" transform="translate(-2057.713 -1190)" fill="url(#linear-gradient)"/>
  <path id="Path_141" data-name="Path 141" d="M2088.577,1201.2a18.289,18.289,0,1,0,18.29,18.289A18.289,18.289,0,0,0,2088.577,1201.2Zm0,21.033a2.743,2.743,0,1,1,2.744-2.744A2.743,2.743,0,0,1,2088.577,1222.236Z" transform="translate(-2056.968 -1190)" fill="url(#linear-gradient)"/>
</svg>
