<svg xmlns="http://www.w3.org/2000/svg" xmlns:xlink="http://www.w3.org/1999/xlink" width="390.667" height="459.271" viewBox="0 0 390.667 459.271">
  <defs>
    <linearGradient id="linear-gradient" y1="0.5" x2="1" y2="0.5" gradientUnits="objectBoundingBox">
      <stop offset="0" stop-color="#ccc"/>
      <stop offset="0.52" stop-color="#dbbc63"/>
      <stop offset="1" stop-color="#eaad00"/>
    </linearGradient>
  </defs>
  <path id="Path_139" data-name="Path 139" d="M2337.757,1448.789h-29.229a214.645,214.645,0,0,0-9.22-22.287l16.914-22.142a14.055,14.055,0,0,0-.8-17.61l-62.309-65.775c-4.36-4.6-11.064-4.177-14.979.947l-16.226,21.242a153.352,153.352,0,0,0-17.369-7.95v-24.76c0-6.886-4.749-12.47-10.607-12.47h-83.74c-5.859,0-10.608,5.583-10.608,12.47v24.76a153.824,153.824,0,0,0-19.094,8.87l-16.927-22.161c-3.915-5.125-10.622-5.548-14.98-.947l-62.307,65.775a14.053,14.053,0,0,0-.806,17.61l18.393,24.08a215.469,215.469,0,0,0-8.271,20.349H1968.3c-5.858,0-10.606,5.583-10.606,12.47v98.448c0,6.886,4.748,12.469,10.606,12.469h19.651a221.689,221.689,0,0,0,9.6,32.774l-19.375,25.366a14.054,14.054,0,0,0,.8,17.61l62.309,65.775c4.359,4.6,11.064,4.177,14.978-.947l12.106-15.848a156.84,156.84,0,0,0,31.206,16.266v31.615c0,6.886,4.749,12.468,10.608,12.468h83.74c5.858,0,10.607-5.582,10.607-12.468v-31.615a157.68,157.68,0,0,0,35.365-19.091l14.263,18.672c3.914,5.125,10.622,5.548,14.981.947l62.305-65.775a14.051,14.051,0,0,0,.806-17.61l-23.648-30.96a222.689,222.689,0,0,0,7.557-27.18h21.593c5.858,0,10.607-5.582,10.607-12.469v-98.448C2348.365,1454.372,2343.615,1448.789,2337.757,1448.789Z" transform="translate(-1957.697 -1297.984)" fill="url(#linear-gradient)"/>
</svg>
