<svg xmlns="http://www.w3.org/2000/svg" xmlns:xlink="http://www.w3.org/1999/xlink" width="39.271" height="39.271" viewBox="0 0 39.271 39.271">
  <defs>
    <linearGradient id="linear-gradient" y1="0.5" x2="1" y2="0.5" gradientUnits="objectBoundingBox">
      <stop offset="0" stop-color="#ccc"/>
      <stop offset="0.52" stop-color="#dbbc63"/>
      <stop offset="1" stop-color="#eaad00"/>
    </linearGradient>
  </defs>
  <path id="Path_137" data-name="Path 137" d="M2172.918,1190.9h-2.938a17.129,17.129,0,0,0-.927-1.906l1.7-1.893a1.067,1.067,0,0,0-.081-1.506l-6.263-5.624a1.067,1.067,0,0,0-1.506.081l-1.631,1.816a16.945,16.945,0,0,0-1.746-.68v-2.117a1.066,1.066,0,0,0-1.066-1.066h-8.418a1.066,1.066,0,0,0-1.067,1.066v2.117a16.773,16.773,0,0,0-1.919.759l-1.7-1.9a1.066,1.066,0,0,0-1.5-.081l-6.264,5.624a1.067,1.067,0,0,0-.081,1.506l1.849,2.059a16.828,16.828,0,0,0-.831,1.74h-2.743a1.066,1.066,0,0,0-1.066,1.066v8.418a1.066,1.066,0,0,0,1.066,1.066h1.975a16.911,16.911,0,0,0,.965,2.8l-1.947,2.169a1.066,1.066,0,0,0,.08,1.506l6.264,5.624a1.067,1.067,0,0,0,1.506-.081l1.217-1.355a16.909,16.909,0,0,0,3.136,1.391v2.7a1.066,1.066,0,0,0,1.067,1.066h8.418a1.066,1.066,0,0,0,1.066-1.066v-2.7a16.941,16.941,0,0,0,3.555-1.633l1.434,1.6a1.066,1.066,0,0,0,1.505.081l6.264-5.624a1.067,1.067,0,0,0,.081-1.506l-2.377-2.647a16.947,16.947,0,0,0,.759-2.325h2.171a1.065,1.065,0,0,0,1.066-1.066v-8.418A1.065,1.065,0,0,0,2172.918,1190.9Zm-18.423,17.731a11.723,11.723,0,1,1,11.723-11.723A11.724,11.724,0,0,1,2154.5,1208.626Z" transform="translate(-2134.713 -1178)" fill="url(#linear-gradient)"/>
</svg>
