<svg id="Group_2" data-name="Group 2" xmlns="http://www.w3.org/2000/svg" width="92.766" height="80" viewBox="0 0 92.766 46.402">
  <g id="Group_1" data-name="Group 1">
    <path id="Path_2" data-name="Path 2" d="M133.463,143.795a1.586,1.586,0,0,0-.42-.421,1.933,1.933,0,0,0-.582-.266l-10.87-2.956a8.992,8.992,0,0,0-4.817.036l-8.247,2.38q-.871.252-1.725.581c-.19.074-.376.155-.562.234a18.062,18.062,0,0,0-1.951-.671,19.4,19.4,0,0,0-6.523-.68l-5.549.36a2.1,2.1,0,0,0-.713.173,1.728,1.728,0,0,0-.564.4L78.447,156.418a1.252,1.252,0,0,0-.353,1,1.364,1.364,0,0,0,.565.933l5.434,4.075a2.749,2.749,0,0,0-.531,1.372,2.858,2.858,0,0,0,1.086,2.423,5.021,5.021,0,0,0,3.034,1.131c.063,0,.127,0,.19.005a2.831,2.831,0,0,0,1.171,3.426,5.163,5.163,0,0,0,2.746.9,2.806,2.806,0,0,0,1.048,3.686,5.237,5.237,0,0,0,3.038.916,5.17,5.17,0,0,0,3.12-.981c.31,1.515,1.973,2.722,4.077,2.826.1.005.2.008.293.008a5.638,5.638,0,0,0,1.531-.212,5.641,5.641,0,0,0,2.707.581,5.376,5.376,0,0,0,3.132-1.082l-2.989-2.256c.007-.052.02-.1.023-.156a2.585,2.585,0,0,0-.216-1.271l6.117,4.616a7.659,7.659,0,0,0,2.487.33,7.029,7.029,0,0,0,4.414-1.647l.612-.537a.745.745,0,0,0,.138-.169l-9.418-7.105a.419.419,0,0,1-.047-.675.689.689,0,0,1,.831-.014l11.2,8.45a6.753,6.753,0,0,0,1.943.22,6.178,6.178,0,0,0,3.883-1.45l1.479-1.3a1.438,1.438,0,0,0,.522-1.14l-9.829-7.414a.42.42,0,0,1-.046-.675.689.689,0,0,1,.831-.014l9.875,7.45a5.561,5.561,0,0,0,1.268.109,5.049,5.049,0,0,0,3.179-1.187l.4-.348a3.337,3.337,0,0,0,1.216-2.666A3.461,3.461,0,0,0,137.15,166l-2.636-1.988.666.5,7.128-4.87a1.414,1.414,0,0,0,.6-.833,1.211,1.211,0,0,0-.178-.955ZM87.807,165.911a2.85,2.85,0,0,1-1.722-.643,1.619,1.619,0,0,1-.616-1.376,2.325,2.325,0,0,1,2.5-1.773c.056,0,.112,0,.168,0a2.854,2.854,0,0,1,1.722.643,1.626,1.626,0,0,1,.617,1.376A2.375,2.375,0,0,1,87.807,165.911Zm4.274,4.342a2.974,2.974,0,0,1-1.724-.519,1.6,1.6,0,0,1-.125-2.662c.048-.038,1.027-.821,1.5-1.195l.247-.2a2.919,2.919,0,0,1,1.822-.593,2.968,2.968,0,0,1,1.724.52,1.72,1.72,0,0,1,.784,1.326,1.66,1.66,0,0,1-.686,1.355l-.7.559-.473.378c-.026.022-.055.044-.08.065l-.313.249c-.048.039-.1.078-.144.116l-.023.019A2.921,2.921,0,0,1,92.081,170.253Zm5.6,4.012a2.923,2.923,0,0,1-1.806.58,2.971,2.971,0,0,1-1.724-.52,1.594,1.594,0,0,1-.128-2.658l1.248-1h0l.484-.386c.847-.678,1.125-.9,1.218-.976.011-.008.024-.016.033-.024h0c.082-.067.129-.1.131-.105a2.918,2.918,0,0,1,1.823-.594,2.973,2.973,0,0,1,1.724.52,1.722,1.722,0,0,1,.783,1.326,1.662,1.662,0,0,1-.687,1.359Zm8.184.66a2.375,2.375,0,0,1-2.668,1.77c-1.38-.069-2.43-.975-2.339-2.019a2.324,2.324,0,0,1,2.5-1.774c.056,0,.112,0,.168,0C104.906,172.975,105.955,173.881,105.865,174.924Zm28-11.4L114.342,148.8l.22-.421a.636.636,0,0,0-.068-.7.982.982,0,0,0-.74-.356l-1.451-.066-1.585-.071-.121,1.422a13.6,13.6,0,0,1-2.495,6.183,11.136,11.136,0,0,1-5.645,4.1,10.828,10.828,0,0,1-1.472.144,2.213,2.213,0,0,1-.733-.1l-.741-.26a1.153,1.153,0,0,1-.673-.564.841.841,0,0,1,0-.761l7.426-12.33,1.263-.629.509-.147h0l9.333-2.693a6.765,6.765,0,0,1,1.825-.262h.052a6.772,6.772,0,0,1,1.78.236l10.87,2.956,9.271,14.061Z" transform="translate(-64.51 -132.296)" fill="#fff"/>
    <path id="Path_3" data-name="Path 3" d="M393.339,103.829l-6.914,3.027a4.012,4.012,0,0,0-2.182,2.2,3.394,3.394,0,0,0,.232,2.914l9.053,15.934a4.2,4.2,0,0,0,2.512,1.915,4.878,4.878,0,0,0,3.317-.2l6.913-3.028Zm6,22.772a1.475,1.475,0,1,1,1.667-1.461A1.574,1.574,0,0,1,399.339,126.6Z" transform="translate(-313.503 -102.302)" fill="#fff"/>
    <path id="Path_4" data-name="Path 4" d="M24.758,100.191a3.8,3.8,0,0,0-1.783-2.466l-6.322-3.9L0,114.642l6.321,3.9a4.807,4.807,0,0,0,3.246.636,4.425,4.425,0,0,0,2.807-1.565l11.658-14.571A3.444,3.444,0,0,0,24.758,100.191ZM8.746,114.33a1.646,1.646,0,0,1-1.9,1.228,1.5,1.5,0,0,1-1.4-1.664,1.648,1.648,0,0,1,1.894-1.229A1.5,1.5,0,0,1,8.746,114.33Z" transform="translate(0 -93.827)" fill="#fff"/>
  </g>
</svg>