<svg xmlns="http://www.w3.org/2000/svg" width="118" height="382" viewBox="0 0 118 382">
  <g id="Group_258" data-name="Group 258" transform="translate(-1081 -2251)">
    <path id="Path_185" data-name="Path 185" d="M1181,2632.51h-33V2251h51Z" fill="#3a3a3a"/>
    <path id="Path_186" data-name="Path 186" d="M1102.706,2633H1148V2251l-67,53.139Z" fill="#474747"/>
    <path id="Path_187" data-name="Path 187" d="M1199,2251l-.527,11.18H1148l-59,46.9L1110.553,2633H1103l-22-329.93,67-52.07Z" fill="#ffc200" opacity="0.4"/>
    <g id="Group_232" data-name="Group 232">
      <rect id="Rectangle_207" data-name="Rectangle 207" width="7" height="10.013" transform="translate(1185 2285.045) rotate(-180)" fill="#303030"/>
      <rect id="Rectangle_208" data-name="Rectangle 208" width="5" height="8.011" transform="translate(1183 2285.045) rotate(-180)" fill="#4c4c4c"/>
    </g>
    <g id="Group_233" data-name="Group 233">
      <rect id="Rectangle_209" data-name="Rectangle 209" width="7" height="10.013" transform="translate(1167 2285.045) rotate(-180)" fill="#303030"/>
      <rect id="Rectangle_210" data-name="Rectangle 210" width="5" height="8.011" transform="translate(1165 2285.045) rotate(-180)" fill="#4c4c4c"/>
    </g>
    <g id="Group_234" data-name="Group 234">
      <rect id="Rectangle_211" data-name="Rectangle 211" width="7" height="10.013" transform="translate(1185 2306.073) rotate(-180)" fill="#303030"/>
      <rect id="Rectangle_212" data-name="Rectangle 212" width="5" height="8.011" transform="translate(1183 2306.073) rotate(-180)" fill="#4c4c4c"/>
    </g>
    <g id="Group_235" data-name="Group 235">
      <rect id="Rectangle_213" data-name="Rectangle 213" width="7" height="10.013" transform="translate(1167 2306.073) rotate(-180)" fill="#303030"/>
      <rect id="Rectangle_214" data-name="Rectangle 214" width="5" height="8.011" transform="translate(1165 2306.073) rotate(-180)" fill="#4c4c4c"/>
    </g>
    <g id="Group_236" data-name="Group 236">
      <rect id="Rectangle_215" data-name="Rectangle 215" width="7" height="10.013" transform="translate(1185 2327.102) rotate(-180)" fill="#303030"/>
      <rect id="Rectangle_216" data-name="Rectangle 216" width="5" height="8.011" transform="translate(1183 2327.102) rotate(-180)" fill="#4c4c4c"/>
    </g>
    <g id="Group_237" data-name="Group 237">
      <rect id="Rectangle_217" data-name="Rectangle 217" width="7" height="10.013" transform="translate(1167 2327.102) rotate(-180)" fill="#303030"/>
      <rect id="Rectangle_218" data-name="Rectangle 218" width="5" height="8.011" transform="translate(1165 2327.102) rotate(-180)" fill="#ffc200" opacity="0.08"/>
    </g>
    <g id="Group_238" data-name="Group 238">
      <rect id="Rectangle_219" data-name="Rectangle 219" width="7" height="10.013" transform="translate(1185 2348.13) rotate(-180)" fill="#303030"/>
      <rect id="Rectangle_220" data-name="Rectangle 220" width="5" height="8.011" transform="translate(1183 2348.13) rotate(-180)" fill="#4c4c4c"/>
    </g>
    <g id="Group_239" data-name="Group 239">
      <rect id="Rectangle_221" data-name="Rectangle 221" width="7" height="10.013" transform="translate(1167 2348.13) rotate(-180)" fill="#303030"/>
      <rect id="Rectangle_222" data-name="Rectangle 222" width="5" height="8.011" transform="translate(1165 2348.13) rotate(-180)" fill="#4c4c4c"/>
    </g>
    <g id="Group_240" data-name="Group 240">
      <rect id="Rectangle_223" data-name="Rectangle 223" width="7" height="10.013" transform="translate(1185 2369.158) rotate(-180)" fill="#303030"/>
      <rect id="Rectangle_224" data-name="Rectangle 224" width="5" height="8.011" transform="translate(1183 2369.158) rotate(-180)" fill="#ffc200" opacity="0.08"/>
    </g>
    <g id="Group_241" data-name="Group 241">
      <rect id="Rectangle_225" data-name="Rectangle 225" width="7" height="10.013" transform="translate(1167 2369.158) rotate(-180)" fill="#303030"/>
      <rect id="Rectangle_226" data-name="Rectangle 226" width="5" height="8.011" transform="translate(1165 2369.158) rotate(-180)" fill="#4c4c4c"/>
    </g>
    <g id="Group_242" data-name="Group 242">
      <rect id="Rectangle_227" data-name="Rectangle 227" width="7" height="10.013" transform="translate(1185 2390.186) rotate(-180)" fill="#303030"/>
      <rect id="Rectangle_228" data-name="Rectangle 228" width="5" height="8.011" transform="translate(1183 2390.186) rotate(-180)" fill="#4c4c4c"/>
    </g>
    <g id="Group_243" data-name="Group 243">
      <rect id="Rectangle_229" data-name="Rectangle 229" width="7" height="10.013" transform="translate(1167 2390.186) rotate(-180)" fill="#303030"/>
      <rect id="Rectangle_230" data-name="Rectangle 230" width="5" height="8.011" transform="translate(1165 2390.186) rotate(-180)" fill="#4c4c4c"/>
    </g>
    <g id="Group_244" data-name="Group 244">
      <rect id="Rectangle_231" data-name="Rectangle 231" width="7" height="10.013" transform="translate(1185 2411.214) rotate(-180)" fill="#303030"/>
      <rect id="Rectangle_232" data-name="Rectangle 232" width="5" height="8.011" transform="translate(1183 2411.214) rotate(-180)" fill="#4c4c4c"/>
    </g>
    <g id="Group_245" data-name="Group 245">
      <rect id="Rectangle_233" data-name="Rectangle 233" width="7" height="10.013" transform="translate(1167 2411.214) rotate(-180)" fill="#303030"/>
      <rect id="Rectangle_234" data-name="Rectangle 234" width="5" height="8.011" transform="translate(1165 2411.214) rotate(-180)" fill="#ffc200" opacity="0.08"/>
    </g>
    <g id="Group_246" data-name="Group 246">
      <rect id="Rectangle_235" data-name="Rectangle 235" width="7" height="10.013" transform="translate(1185 2432.242) rotate(-180)" fill="#303030"/>
      <rect id="Rectangle_236" data-name="Rectangle 236" width="5" height="8.011" transform="translate(1183 2432.242) rotate(-180)" fill="#ffc200" opacity="0.08"/>
    </g>
    <g id="Group_247" data-name="Group 247">
      <rect id="Rectangle_237" data-name="Rectangle 237" width="7" height="10.013" transform="translate(1167 2432.242) rotate(-180)" fill="#303030"/>
      <rect id="Rectangle_238" data-name="Rectangle 238" width="5" height="8.011" transform="translate(1165 2432.242) rotate(-180)" fill="#4c4c4c"/>
    </g>
    <g id="Group_248" data-name="Group 248">
      <rect id="Rectangle_239" data-name="Rectangle 239" width="7" height="10.013" transform="translate(1185 2453.27) rotate(-180)" fill="#303030"/>
      <rect id="Rectangle_240" data-name="Rectangle 240" width="5" height="8.011" transform="translate(1183 2453.27) rotate(-180)" fill="#4c4c4c"/>
    </g>
    <g id="Group_249" data-name="Group 249">
      <rect id="Rectangle_241" data-name="Rectangle 241" width="7" height="10.013" transform="translate(1167 2453.27) rotate(-180)" fill="#303030"/>
      <rect id="Rectangle_242" data-name="Rectangle 242" width="5" height="8.011" transform="translate(1165 2453.27) rotate(-180)" fill="#ffc200" opacity="0.08"/>
    </g>
    <g id="Group_250" data-name="Group 250">
      <rect id="Rectangle_243" data-name="Rectangle 243" width="7" height="10.013" transform="translate(1185 2474.298) rotate(-180)" fill="#303030"/>
      <rect id="Rectangle_244" data-name="Rectangle 244" width="5" height="8.011" transform="translate(1183 2474.298) rotate(-180)" fill="#4c4c4c"/>
    </g>
    <g id="Group_251" data-name="Group 251">
      <rect id="Rectangle_245" data-name="Rectangle 245" width="7" height="10.013" transform="translate(1167 2474.298) rotate(-180)" fill="#303030"/>
      <rect id="Rectangle_246" data-name="Rectangle 246" width="5" height="8.011" transform="translate(1165 2474.298) rotate(-180)" fill="#4c4c4c"/>
    </g>
    <g id="Group_252" data-name="Group 252">
      <rect id="Rectangle_247" data-name="Rectangle 247" width="7" height="10.013" transform="translate(1167 2495.327) rotate(-180)" fill="#303030"/>
      <rect id="Rectangle_248" data-name="Rectangle 248" width="5" height="8.011" transform="translate(1165 2495.327) rotate(-180)" fill="#4c4c4c"/>
    </g>
    <g id="Group_253" data-name="Group 253">
      <rect id="Rectangle_249" data-name="Rectangle 249" width="7" height="10.013" transform="translate(1167 2516.355) rotate(-180)" fill="#303030"/>
      <rect id="Rectangle_250" data-name="Rectangle 250" width="5" height="8.011" transform="translate(1165 2516.355) rotate(-180)" fill="#4c4c4c"/>
    </g>
    <g id="Group_254" data-name="Group 254">
      <rect id="Rectangle_251" data-name="Rectangle 251" width="7" height="10.013" transform="translate(1167 2537.383) rotate(-180)" fill="#303030"/>
      <rect id="Rectangle_252" data-name="Rectangle 252" width="5" height="8.011" transform="translate(1165 2537.383) rotate(-180)" fill="#4c4c4c"/>
    </g>
    <g id="Group_255" data-name="Group 255">
      <rect id="Rectangle_253" data-name="Rectangle 253" width="7" height="10.013" transform="translate(1167 2558.411) rotate(-180)" fill="#303030"/>
      <rect id="Rectangle_254" data-name="Rectangle 254" width="5" height="8.011" transform="translate(1165 2558.411) rotate(-180)" fill="#4c4c4c"/>
    </g>
    <g id="Group_256" data-name="Group 256">
      <rect id="Rectangle_255" data-name="Rectangle 255" width="7" height="10.013" transform="translate(1167 2579.439) rotate(-180)" fill="#303030"/>
      <rect id="Rectangle_256" data-name="Rectangle 256" width="5" height="8.011" transform="translate(1165 2579.439) rotate(-180)" fill="#4c4c4c"/>
    </g>
    <g id="Group_257" data-name="Group 257">
      <rect id="Rectangle_257" data-name="Rectangle 257" width="7" height="10.013" transform="translate(1167 2600.467) rotate(-180)" fill="#303030"/>
      <rect id="Rectangle_258" data-name="Rectangle 258" width="5" height="8.011" transform="translate(1165 2600.467) rotate(-180)" fill="#4c4c4c"/>
    </g>
  </g>
</svg>
