<svg xmlns="http://www.w3.org/2000/svg" width="440.338" height="383.401" viewBox="0 0 455.338 383.401">
  <g id="Group_474" data-name="Group 474" transform="translate(-687.004 -337.472)" opacity="0.9">
    <g id="Group_469" data-name="Group 469" transform="translate(687.004 337.472)" opacity="0.7">
      <path id="Path_322" data-name="Path 322" d="M485.065,253.581c6.3,4.687,6.342,12.282.081,16.974l-82.948,62.1c-6.262,4.687-16.446,4.687-22.75,0l-83.484-62.1c-6.3-4.687-6.334-12.287-.073-16.979l82.948-62.106c6.262-4.687,16.439-4.682,22.742,0Z" transform="translate(-61.741 -68.065)" fill="#fff"/>
      <path id="Path_323" data-name="Path 323" d="M489.715,292.5a10.927,10.927,0,0,1-4.633,7.818l-82.948,62.106a19.29,19.29,0,0,1-11.728,3.5,19.764,19.764,0,0,1-9.841-2.709c-.405-.248-.8-.512-1.18-.8l-83.484-62.1c-3.171-2.36-4.757-5.458-4.749-8.549l-.069,31.671c-.008,3.092,1.578,6.189,4.749,8.55l83.484,62.1A16.856,16.856,0,0,0,384,396.512a20.728,20.728,0,0,0,14.821-.556,16.893,16.893,0,0,0,3.241-1.86l82.948-62.105a12.127,12.127,0,0,0,3.719-4.409,9.389,9.389,0,0,0,.953-4.016l.069-31.672C489.754,292.1,489.731,292.3,489.715,292.5Z" transform="translate(-61.682 -102.864)" fill="#121010"/>
      <path id="Path_324" data-name="Path 324" d="M489.739,313.244l-.015,9.553a16.922,16.922,0,0,1-1.975,1.745l-84.56,63.309a22.105,22.105,0,0,1-25.3,0l-85.112-63.3a14.855,14.855,0,0,1-1.663-1.417l.016-8.957a8.71,8.71,0,0,0,3.75,5.676L380,383.164c5.733,4.27,15.385,4.27,21.083.01l84.557-63.319C488.03,318.055,489.739,315.5,489.739,313.244Z" transform="translate(-61.698 -108.972)" fill="#121010"/>
      <path id="Path_325" data-name="Path 325" d="M486.728,300.236c-.127-.129-.251-.258-.386-.378v.716l-.016,8.837c0,2.252-1.705,4.811-4.1,6.606l-84.561,63.319c-5.7,4.255-15.35,4.255-21.083-.01L291.47,316.017a8.71,8.71,0,0,1-3.75-5.676,5.527,5.527,0,0,1-.043-.661,5.218,5.218,0,0,1,.05-.735l.015-8.912A13.049,13.049,0,0,0,287.7,319.3a15.64,15.64,0,0,0,1.663,1.417l85.112,63.3a22.106,22.106,0,0,0,25.3,0l84.56-63.314a16.888,16.888,0,0,0,1.975-1.745,14.306,14.306,0,0,0,4.22-9.553A13.129,13.129,0,0,0,486.728,300.236Z" transform="translate(-58.285 -104.793)" fill="#fdbb2b"/>
      <path id="Path_328" data-name="Path 328" d="M244.2,333.589a3.794,3.794,0,0,1,.027,6.437l-12.538,9.389a7.651,7.651,0,0,1-8.63,0l-12.623-9.389a3.8,3.8,0,0,1-.023-6.441l12.538-9.389a7.653,7.653,0,0,1,8.626,0Z" transform="translate(-70.588 -110.062)" fill="#fff"/>
      <path id="Path_329" data-name="Path 329" d="M245.953,342.425a4.15,4.15,0,0,1-1.77,3.2l-12.538,9.389a7.364,7.364,0,0,1-3.2,1.257,7.565,7.565,0,0,1-5.432-1.253l-12.623-9.389a4.063,4.063,0,0,1-1.8-3.241l-.058,26.488a4.061,4.061,0,0,0,1.8,3.241l12.623,9.389a5.869,5.869,0,0,0,.88.541,7.684,7.684,0,0,0,7.75-.546c.069-.055,12.549-9.394,12.611-9.444a4.1,4.1,0,0,0,1.7-3.141Z" transform="translate(-70.549 -117.219)" fill="#121010"/>
      <path id="Path_330" data-name="Path 330" d="M243.29,317.951a1.942,1.942,0,0,1,.015,3.3l-6.416,4.806a3.916,3.916,0,0,1-4.417,0l-6.462-4.806a1.94,1.94,0,0,1-.012-3.3l6.416-4.806a3.908,3.908,0,0,1,4.414,0Z" transform="translate(-77.358 -106.033)" fill="#e6e6e6"/>
      <path id="Path_331" data-name="Path 331" d="M244.185,322.474a2.11,2.11,0,0,1-.907,1.636l-6.416,4.806a3.729,3.729,0,0,1-1.635.641,3.9,3.9,0,0,1-2.781-.641l-6.462-4.806a2.09,2.09,0,0,1-.922-1.661L225.031,336a2.077,2.077,0,0,0,.922,1.66l6.462,4.806a2.941,2.941,0,0,0,.451.278,3.931,3.931,0,0,0,3.966-.278c.035-.03,6.424-4.806,6.454-4.831a2.1,2.1,0,0,0,.868-1.606Z" transform="translate(-77.336 -109.645)" fill="#c6c6c6"/>
      <path id="Path_342" data-name="Path 342" d="M119.2,416.946l57.76-41.751c1.971-2.242.116-6.581-2.319-5.234l-57.76,41.752Z" transform="translate(-38.633 -126.858)" fill="#ffbe12"/>
      <path id="Path_343" data-name="Path 343" d="M316.58,416.709l-57.76-41.751c-1.972-2.242-.116-6.581,2.319-5.234l57.76,41.752Z" transform="translate(-85.273 -126.777)" fill="#ffbe12"/>
      <g id="Group_464" data-name="Group 464" transform="translate(222.975 169.33)" opacity="0.3">
        <path id="Path_344" data-name="Path 344" d="M425.641,334.479a4.714,4.714,0,0,1-5.347,0L325.017,263.62l5.339-4,95.266,70.869A2.348,2.348,0,0,1,425.641,334.479Z" transform="translate(-325.017 -259.624)" fill="#0e0f0f" opacity="0.3"/>
      </g>
      <g id="Group_465" data-name="Group 465" transform="translate(294.863 178.81)" opacity="0.2">
        <path id="Path_345" data-name="Path 345" d="M511.388,324.057l-5.331,4h-.008L438.355,277.7a2.356,2.356,0,0,1-.016-4,4.745,4.745,0,0,1,5.355,0Z" transform="translate(-437.239 -272.874)" fill="#0e0f0f" opacity="0.2"/>
      </g>
      <path id="Path_349" data-name="Path 349" d="M123.649,393.975c4.016,2.987,4.043,7.828.05,10.821l-52.876,39.59a12.855,12.855,0,0,1-14.5,0L3.106,404.8c-4.016-2.987-4.039-7.834-.046-10.821l52.876-39.59a12.837,12.837,0,0,1,14.5,0Z" transform="translate(-0.035 -123.345)" fill="#fff"/>
      <path id="Path_350" data-name="Path 350" d="M126.615,418.787a6.951,6.951,0,0,1-2.951,4.98l-52.876,39.59a12.277,12.277,0,0,1-7.476,2.231,12.63,12.63,0,0,1-6.273-1.725q-.388-.239-.752-.506L3.07,423.772a6.837,6.837,0,0,1-3.028-5.447L0,438.515a6.824,6.824,0,0,0,3.028,5.448l53.215,39.584a10.618,10.618,0,0,0,2.986,1.536,13.215,13.215,0,0,0,9.448-.353,10.678,10.678,0,0,0,2.064-1.183l52.876-39.589a7.683,7.683,0,0,0,2.368-2.808,6.05,6.05,0,0,0,.61-2.56l.047-20.19C126.642,418.528,126.626,418.658,126.615,418.787Z" transform="translate(0 -143.604)" fill="#121010"/>
      <path id="Path_353" data-name="Path 353" d="M624.464,465.885a4.181,4.181,0,0,1,.031,7.1l-32.938,24.663a8.438,8.438,0,0,1-9.514,0L538.275,465.09a4.181,4.181,0,0,1-.031-7.1l32.939-24.664a8.437,8.437,0,0,1,9.513,0Z" transform="translate(-171.133 -148.469)" fill="#fff"/>
      <path id="Path_354" data-name="Path 354" d="M626.419,481.632a4.6,4.6,0,0,1-1.937,3.271l-32.938,24.663a8.468,8.468,0,0,1-9.514,0L538.263,477.01a4.481,4.481,0,0,1-1.986-3.574c-.085,2.282-.023,3.857,1.983,5.338l43.767,32.557a7.662,7.662,0,0,0,1.786.954,8.479,8.479,0,0,0,7.723-.954l32.938-24.663a6.523,6.523,0,0,0,.891-.83,4.441,4.441,0,0,0,1.019-2.123c.1-.561.023-1.794.05-2.341C626.435,481.464,626.423,481.548,626.419,481.632Z" transform="translate(-171.117 -161.079)" fill="#121010"/>
      <path id="Path_355" data-name="Path 355" d="M548.311,464.052a.557.557,0,0,1,0-.944l32.425-24.275a1.128,1.128,0,0,1,1.266,0l41.591,30.941a.557.557,0,0,1,0,.944l-32.426,24.275a1.128,1.128,0,0,1-1.266,0Zm76.332,4.926-41.591-30.941a3,3,0,0,0-3.379,0l-32.426,24.275a1.484,1.484,0,0,0,.012,2.52l41.591,30.941a3,3,0,0,0,3.38,0L624.654,471.5A1.486,1.486,0,0,0,624.643,468.978Z" transform="translate(-175.714 -149.805)" fill="#7b7b7b"/>
      <path id="Path_356" data-name="Path 356" d="M634.727,473.962l-21.8-16.218-1.613,1.208,21.8,16.213Z" transform="translate(-204.621 -155.249)" fill="#fdbb2b"/>
      <path id="Path_357" data-name="Path 357" d="M585.3,476.576l-6.628-4.931-1.609,1.208,6.628,4.925Z" transform="translate(-189.331 -158.003)" fill="#fdbb2b"/>
      <path id="Path_358" data-name="Path 358" d="M627.592,481.149l-32.7-24.325-1.609,1.2,32.7,24.326Z" transform="translate(-196.571 -154.143)" fill="#c6c6c6"/>
      <path id="Path_359" data-name="Path 359" d="M621.528,483.2l-27.4-20.379-1.608,1.208,27.4,20.378Z" transform="translate(-196.232 -155.976)" fill="#c6c6c6"/>
      <path id="Path_360" data-name="Path 360" d="M615.143,484.267,597.76,471.339l-1.609,1.2,17.384,12.933Z" transform="translate(-197.853 -158.448)" fill="#c6c6c6"/>
      <path id="Path_361" data-name="Path 361" d="M624.486,459.077a4.182,4.182,0,0,1,.031,7.1l-32.939,24.663a8.435,8.435,0,0,1-9.513,0L538.3,458.282a4.181,4.181,0,0,1-.03-7.1L571.2,426.521a8.436,8.436,0,0,1,9.514,0Z" transform="translate(-171.143 -146.014)" fill="#fff"/>
      <path id="Path_362" data-name="Path 362" d="M626.433,474.832a4.6,4.6,0,0,1-1.937,3.27l-32.939,24.663a8.468,8.468,0,0,1-9.513,0l-43.768-32.557a4.481,4.481,0,0,1-1.986-3.574c-.085,2.282-.023,3.858,1.983,5.338L582.04,504.53a7.645,7.645,0,0,0,1.786.954,8.479,8.479,0,0,0,7.723-.954l32.939-24.663a6.52,6.52,0,0,0,.891-.83,4.437,4.437,0,0,0,1.019-2.123c.1-.561.023-1.794.05-2.341C626.448,474.662,626.441,474.747,626.433,474.832Z" transform="translate(-171.123 -158.661)" fill="#121010"/>
      <path id="Path_363" data-name="Path 363" d="M548.324,457.246a.557.557,0,0,1,0-.944l32.425-24.275a1.128,1.128,0,0,1,1.265,0L623.6,462.967a.556.556,0,0,1,0,.944l-32.425,24.275a1.128,1.128,0,0,1-1.266,0Zm76.336,4.931-41.6-30.941a3,3,0,0,0-3.38,0l-32.425,24.275a1.484,1.484,0,0,0,.012,2.52l41.591,30.941a3,3,0,0,0,3.379,0L624.667,464.7A1.486,1.486,0,0,0,624.659,462.177Z" transform="translate(-175.719 -147.364)" fill="#7b7b7b"/>
      <path id="Path_364" data-name="Path 364" d="M634.742,467.154l-21.8-16.218-1.609,1.208,21.8,16.218Z" transform="translate(-204.629 -152.948)" fill="#fdbb2b"/>
      <path id="Path_365" data-name="Path 365" d="M585.31,469.768l-6.624-4.931-1.609,1.208,6.624,4.925Z" transform="translate(-189.339 -155.617)" fill="#fdbb2b"/>
      <path id="Path_366" data-name="Path 366" d="M627.6,474.341l-32.7-24.325-1.613,1.2,32.7,24.326Z" transform="translate(-196.576 -153.066)" fill="#c6c6c6"/>
      <path id="Path_367" data-name="Path 367" d="M621.544,476.394l-27.395-20.378-1.608,1.2L619.936,477.6Z" transform="translate(-196.241 -154.886)" fill="#c6c6c6"/>
      <path id="Path_368" data-name="Path 368" d="M615.159,477.459l-17.38-12.928-1.609,1.208,17.38,12.928Z" transform="translate(-197.861 -156.055)" fill="#c6c6c6"/>
      <path id="Path_369" data-name="Path 369" d="M624.486,452.276a4.182,4.182,0,0,1,.031,7.1l-32.939,24.663a8.438,8.438,0,0,1-9.513,0L538.3,451.481a4.181,4.181,0,0,1-.03-7.1L571.2,419.721a8.436,8.436,0,0,1,9.514,0Z" transform="translate(-173.93 -143.561)" fill="#fff"/>
      <path id="Path_370" data-name="Path 370" d="M626.433,468.023a4.605,4.605,0,0,1-1.937,3.271l-32.939,24.663a8.468,8.468,0,0,1-9.513,0L538.276,463.4a4.481,4.481,0,0,1-1.986-3.574c-.085,2.282-.023,3.858,1.983,5.338l43.768,32.557a7.649,7.649,0,0,0,1.786.954,8.48,8.48,0,0,0,7.723-.954l32.939-24.663a6.524,6.524,0,0,0,.891-.83,4.438,4.438,0,0,0,1.019-2.123c.1-.561.023-1.794.05-2.341C626.448,467.854,626.441,467.939,626.433,468.023Z" transform="translate(-171.123 -156.24)" fill="#121010"/>
      <path id="Path_371" data-name="Path 371" d="M548.327,450.443a.557.557,0,0,1,0-.944l32.425-24.275a1.128,1.128,0,0,1,1.266,0l41.591,30.941a.557.557,0,0,1,0,.944l-32.426,24.275a1.128,1.128,0,0,1-1.266,0Zm76.336,4.926-41.592-30.941a3,3,0,0,0-3.379,0L547.266,448.7a1.483,1.483,0,0,0,.012,2.519l41.592,30.941a3,3,0,0,0,3.379,0l32.426-24.275A1.487,1.487,0,0,0,624.663,455.369Z" transform="translate(-175.723 -144.919)" fill="#7b7b7b"/>
      <path id="Path_372" data-name="Path 372" d="M634.743,460.348l-21.8-16.213-1.609,1.2,21.8,16.218Z" transform="translate(-204.63 -150.649)" fill="#fdbb2b"/>
      <path id="Path_373" data-name="Path 373" d="M585.31,462.962l-6.624-4.926-1.609,1.2,6.624,4.93Z" transform="translate(-189.339 -154.765)" fill="#fdbb2b"/>
      <path id="Path_374" data-name="Path 374" d="M627.6,467.533l-32.7-24.325-1.613,1.208L626,468.741Z" transform="translate(-196.576 -150.759)" fill="#c6c6c6"/>
      <path id="Path_375" data-name="Path 375" d="M621.544,469.586,594.15,449.208l-1.609,1.2,27.395,20.379Z" transform="translate(-196.241 -152.582)" fill="#c6c6c6"/>
      <path id="Path_376" data-name="Path 376" d="M615.16,470.658,597.78,457.73l-1.609,1.2,17.38,12.928Z" transform="translate(-197.862 -155.072)" fill="#c6c6c6"/>
      <path id="Path_377" data-name="Path 377" d="M624.5,445.469a4.181,4.181,0,0,1,.03,7.1L591.59,477.23a8.436,8.436,0,0,1-9.514,0l-43.767-32.556a4.182,4.182,0,0,1-.031-7.1l32.939-24.663a8.436,8.436,0,0,1,9.514,0Z" transform="translate(-171.148 -141.105)" fill="#fff"/>
      <path id="Path_378" data-name="Path 378" d="M626.454,461.216a4.6,4.6,0,0,1-1.937,3.27l-32.938,24.663a8.469,8.469,0,0,1-9.514,0L538.3,456.593a4.482,4.482,0,0,1-1.987-3.574c-.085,2.282-.023,3.858,1.983,5.338l43.767,32.557a7.664,7.664,0,0,0,1.786.954,8.481,8.481,0,0,0,7.724-.954l32.938-24.663a6.518,6.518,0,0,0,.891-.83,4.434,4.434,0,0,0,1.018-2.122c.1-.562.023-1.795.051-2.341C626.469,461.047,626.458,461.131,626.454,461.216Z" transform="translate(-171.133 -153.818)" fill="#121010"/>
      <path id="Path_379" data-name="Path 379" d="M548.345,443.635a.557.557,0,0,1,0-.944l32.426-24.28a1.127,1.127,0,0,1,1.265,0l41.592,30.941a.557.557,0,0,1,0,.944L591.2,474.571a1.128,1.128,0,0,1-1.266,0Zm76.332,4.926L583.086,417.62a3,3,0,0,0-3.38,0L547.281,441.9a1.483,1.483,0,0,0,.012,2.519l41.591,30.941a3,3,0,0,0,3.379,0l32.425-24.275A1.486,1.486,0,0,0,624.677,448.561Z" transform="translate(-175.729 -142.475)" fill="#7b7b7b"/>
      <path id="Path_380" data-name="Path 380" d="M634.761,453.545l-21.8-16.218-1.613,1.2,21.8,16.218Z" transform="translate(-204.636 -148.348)" fill="#fdbb2b"/>
      <path id="Path_381" data-name="Path 381" d="M585.329,456.159l-6.628-4.93-1.609,1.208,6.628,4.925Z" transform="translate(-189.346 -152.473)" fill="#fdbb2b"/>
      <path id="Path_382" data-name="Path 382" d="M627.627,460.732l-32.7-24.325-1.609,1.2,32.7,24.326Z" transform="translate(-196.587 -148.454)" fill="#c6c6c6"/>
      <path id="Path_383" data-name="Path 383" d="M621.563,462.778l-27.4-20.378-1.608,1.208,27.4,20.379Z" transform="translate(-196.248 -150.278)" fill="#c6c6c6"/>
      <path id="Path_384" data-name="Path 384" d="M615.178,463.85l-17.384-12.928-1.608,1.2,17.379,12.933Z" transform="translate(-197.868 -152.773)" fill="#c6c6c6"/>
      <path id="Path_385" data-name="Path 385" d="M550.73,123.6c2.635,1.958,4.764,6.71,4.757,10.612l-.3,135.8c-.008,3.9-2.153,5.477-4.788,3.514L433.51,186.579c-2.635-1.959-4.765-6.71-4.757-10.612l.3-135.8c.007-3.9,2.153-5.477,4.787-3.514Z" transform="translate(-123.132 -10.845)" fill="#fdbb2b"/>
      <path id="Path_386" data-name="Path 386" d="M559.806,130.83a15.774,15.774,0,0,0-2.485-7.8,9.777,9.777,0,0,0-2.268-2.54c-.764-.532-116.7-86.879-117.368-87.266a2.733,2.733,0,0,0-2.538-.343,2.911,2.911,0,0,0-.386.229L431.8,35.327c1.08-.785,2.38-.333,3.395.427l116.893,86.953a10.482,10.482,0,0,1,2.666,3.191,15.6,15.6,0,0,1,2.091,7.421l-.3,135.8c0,1.5-.348,3.136-1.393,3.942l2.963-2.217a3.907,3.907,0,0,0,1.269-2.446,8.789,8.789,0,0,0,.123-1.5C559.5,266.443,559.821,131.247,559.806,130.83Z" transform="translate(-124.492 -9.954)" fill="#f59e27"/>
      <g id="Group_466" data-name="Group 466" transform="translate(337.741 68.812)" opacity="0.2">
        <path id="Path_387" data-name="Path 387" d="M585.935,167.705,569.15,155.219l-.023,11.05,9.32,6.933-.1,46.057,7.461,5.552Z" transform="translate(-523.531 -121.435)" fill="#fff" opacity="0.2"/>
        <path id="Path_388" data-name="Path 388" d="M525.664,136.546l-38.575-28.689-.054,24.867,7.465,5.552.03-13.818L525.637,147.6Z" transform="translate(-486.888 -107.857)" fill="#fff" opacity="0.2"/>
        <path id="Path_389" data-name="Path 389" d="M494.358,162.479l-7.465-5.552-.124,57.105,16.8,12.5.023-11.054-9.332-6.939Z" transform="translate(-486.77 -121.925)" fill="#fff" opacity="0.2"/>
        <path id="Path_390" data-name="Path 390" d="M568.088,261.014l-7.465-5.557-.03,13.817L529.5,246.147l-.027,11.05,38.559,28.684Z" transform="translate(-505.83 -147.504)" fill="#fff" opacity="0.2"/>
        <path id="Path_391" data-name="Path 391" d="M546.615,176.462l-7.465-5.552-10.034,30.106L519.244,156.1l-7.465-5.552,13.568,61.743,7.465,5.552Z" transform="translate(-497.933 -120.097)" fill="#fff" opacity="0.2"/>
      </g>
      <path id="Path_392" data-name="Path 392" d="M444.783,184.779a4.915,4.915,0,0,1-1.589-3.549L443.46,60.2c0-1.3.718-1.834,1.6-1.183l104.182,77.5a4.924,4.924,0,0,1,1.589,3.549L550.562,261.1c0,1.3-.721,1.834-1.6,1.183Zm104.47-52.195L445.069,55.091c-2.349-1.75-4.259-.343-4.267,3.131l-.266,121.031c-.008,3.479,1.89,7.714,4.24,9.458l104.181,77.5c2.349,1.75,4.259.343,4.267-3.131l.266-121.03C553.5,138.569,551.6,134.335,549.254,132.585Z" transform="translate(-128.392 -16.158)" fill="#fff"/>
      <path id="Path_393" data-name="Path 393" d="M551.659,199.155l-81.918-60.938-.016,6.01,81.918,60.933Z" transform="translate(-141.421 -48.139)" fill="#fff"/>
      <path id="Path_394" data-name="Path 394" d="M550.323,212.282l-68.635-51.056-.012,6.01,68.632,51.051Z" transform="translate(-146.755 -55.838)" fill="#fff"/>
      <path id="Path_395" data-name="Path 395" d="M548.178,222.978,504.634,190.59l-.011,6,43.544,32.387Z" transform="translate(-169.744 -65.438)" fill="#fff"/>
      <path id="Path_396" data-name="Path 396" d="M549.08,169.342l-54.612-40.623-.012,6,54.612,40.623Z" transform="translate(-164.513 -44.506)" fill="#f9f9f9"/>
      <path id="Path_397" data-name="Path 397" d="M487.386,110.959l-.27,122.581L433.5,193.657c-2.639-1.959-4.768-6.715-4.757-10.617l.27-122.582,53.62,39.883C485.267,102.3,487.393,107.057,487.386,110.959Z" transform="translate(-142.055 -17.913)" fill="#121010" opacity="0.2"/>
      <path id="Path_398" data-name="Path 398" d="M589.383,341.13l-12.577-9.354-12.573-9.355-4.73,28.258,8.391,2.788,8.827,18.306,8.877-5.14,8.375,9.688Z" transform="translate(-181.495 -110.99)" fill="#fff"/>
      <path id="Path_399" data-name="Path 399" d="M591.137,308.866c-.313-17.848-12.6-43.546-27.3-45.639a8.587,8.587,0,0,0-5.012,1.029c-.737.313-4.946,3.654-5.7,4.16,10.351-6.909,22.6,9.1,27.356,19.847,5.146,10.687,10.25,33.034.262,41.38.86-.681,5.1-3.7,5.779-4.469C590.276,321.366,591.268,314.731,591.137,308.866Z" transform="translate(-178.646 -91.166)" fill="#121010"/>
      <path id="Path_400" data-name="Path 400" d="M562.409,271.59c10.767,8.008,19.47,27.422,19.436,43.362s-8.792,22.371-19.56,14.365-19.467-27.427-19.428-43.367S551.641,263.583,562.409,271.59Z" transform="translate(-174.064 -92.8)" fill="#fff"/>
      <path id="Path_401" data-name="Path 401" d="M573.922,326.373c-9.313,1.775-17.541-14.514-18.737-24.976-.594-4.841-.274-10.995,3.287-13.8-1.37,1-3.063,2.147-3.869,3.967-3.522,8.152-.027,19.181,3.862,26.154,3.275,5.656,9.575,12.914,15.35,9.166l1.779-1.332A5.173,5.173,0,0,1,573.922,326.373Z" transform="translate(-177.609 -98.542)" fill="#121010"/>
      <path id="Path_402" data-name="Path 402" d="M583.557,314.52a52.235,52.235,0,0,0-6.917-23.674c-2.932-5.08-6.659-9.657-11.249-12.1-2.523-1.307-5.474-1.839-8.024-.4a31.38,31.38,0,0,0-2.573,1.839c8.352-5.418,17.8,6.77,21.812,15.344,4.421,8.981,8.877,27.014.579,34.291l1.779-1.332C582.643,325.679,583.7,319.694,583.557,314.52Z" transform="translate(-179.392 -95.538)" fill="#121010"/>
      <path id="Path_403" data-name="Path 403" d="M562.308,282.138c8.727,6.491,15.782,22.233,15.755,35.161s-7.13,18.127-15.86,11.636-15.778-22.228-15.752-35.151S553.582,275.647,562.308,282.138Zm-.089,41.29c6.678,4.965,12.106.979,12.125-8.9s-5.37-21.92-12.048-26.885-12.1-.979-12.121,8.907S555.545,318.467,562.219,323.428Z" transform="translate(-175.669 -96.176)" fill="#fff"/>
      <path id="Path_404" data-name="Path 404" d="M497.834,208.7l-16.608-12.357-.015,6,16.612,12.357Z" transform="translate(-165.715 -66.922)" fill="#c6c6c6"/>
      <path id="Path_405" data-name="Path 405" d="M398.879,91.71c2.635,1.959,4.765,6.71,4.757,10.612l-.3,135.8c-.008,3.9-2.153,5.477-4.788,3.514L281.659,154.686c-2.635-1.958-4.765-6.71-4.757-10.612l.3-135.8c.008-3.9,2.153-5.477,4.788-3.514Z" transform="translate(-83.414 -1.701)" fill="#fff"/>
      <path id="Path_406" data-name="Path 406" d="M407.957,98.943a15.779,15.779,0,0,0-2.484-7.8A9.783,9.783,0,0,0,403.2,88.6c-.764-.526-116.7-86.878-117.364-87.266A2.733,2.733,0,0,0,283.3,1a2.92,2.92,0,0,0-.386.229l-2.962,2.217c1.08-.785,2.38-.333,3.395.427L400.242,90.821a10.5,10.5,0,0,1,2.666,3.191A15.592,15.592,0,0,1,405,101.433l-.3,135.8c0,1.5-.347,3.136-1.392,3.942l2.962-2.217a3.9,3.9,0,0,0,1.27-2.445,8.79,8.79,0,0,0,.123-1.5C407.653,234.557,407.973,99.361,407.957,98.943Z" transform="translate(-84.134 -0.813)" fill="#121010"/>
      <g id="Group_467" data-name="Group 467" transform="translate(224.398 53.61)" opacity="0.05">
        <path id="Path_407" data-name="Path 407" d="M434.084,135.819,417.3,123.333l-.023,11.049,9.32,6.934-.1,46.051,7.465,5.552Z" transform="translate(-371.68 -89.549)" fill="#fff" opacity="0.05"/>
        <path id="Path_408" data-name="Path 408" d="M373.814,104.66,335.243,75.97l-.054,24.867,7.461,5.552.031-13.817,31.109,23.138Z" transform="translate(-335.04 -75.97)" fill="#fff" opacity="0.05"/>
        <path id="Path_409" data-name="Path 409" d="M342.511,130.592l-7.465-5.552-.127,57.106,16.8,12.491.027-11.049-9.336-6.944Z" transform="translate(-334.919 -90.038)" fill="#fff" opacity="0.05"/>
        <path id="Path_410" data-name="Path 410" d="M416.24,229.123l-7.465-5.552-.031,13.818L377.65,214.261l-.023,11.049,38.56,28.685Z" transform="translate(-353.982 -115.617)" fill="#fff" opacity="0.05"/>
        <path id="Path_411" data-name="Path 411" d="M394.767,144.569l-7.465-5.552-10.034,30.106L367.4,124.209l-7.465-5.552L373.5,180.405l7.465,5.552Z" transform="translate(-346.085 -88.208)" fill="#fff" opacity="0.05"/>
      </g>
      <path id="Path_412" data-name="Path 412" d="M294.458,152.891a4.918,4.918,0,0,1-1.589-3.549l.266-121.03c0-1.3.717-1.834,1.6-1.183l104.181,77.5a4.919,4.919,0,0,1,1.59,3.549l-.266,121.03c0,1.3-.721,1.835-1.6,1.183ZM398.926,100.7,294.744,23.2c-2.35-1.75-4.259-.343-4.267,3.131l-.266,121.03c-.007,3.479,1.891,7.714,4.24,9.459l104.181,77.5c2.349,1.75,4.259.343,4.267-3.131l.266-121.031C403.173,106.676,401.275,102.441,398.926,100.7Z" transform="translate(-89.54 -7.014)" fill="#c6c6c6"/>
      <path id="Path_413" data-name="Path 413" d="M397.232,128.342,342.62,87.718l-.016,6,54.612,40.623Z" transform="translate(-113.989 -24.256)" fill="#fdbb2b"/>
      <path id="Path_414" data-name="Path 414" d="M345.989,176.811l-16.612-12.352-.012,6,16.608,12.357Z" transform="translate(-113.425 -56.141)" fill="#fdbb2b"/>
      <path id="Path_415" data-name="Path 415" d="M399.812,158.156,317.894,97.223l-.012,6L399.8,164.16Z" transform="translate(-102.531 -34.019)" fill="#c6c6c6"/>
      <path id="Path_416" data-name="Path 416" d="M398.472,171.283,329.84,120.232l-.016,6,68.635,51.051Z" transform="translate(-108.087 -41.776)" fill="#c6c6c6"/>
      <path id="Path_417" data-name="Path 417" d="M396.331,181.977l-43.544-32.388-.016,6,43.544,32.392Z" transform="translate(-118.664 -51.476)" fill="#c6c6c6"/>
      <path id="Path_418" data-name="Path 418" d="M432.979,304.687,420.4,295.332l-12.576-9.354-4.73,28.257,8.395,2.788,8.823,18.306,8.877-5.139,8.375,9.687Z" transform="translate(-136.734 -98.505)" fill="#f59e27"/>
      <path id="Path_419" data-name="Path 419" d="M395.457,463.831c4.016,2.987,4.043,7.829.05,10.821l-52.876,39.59a12.853,12.853,0,0,1-14.5,0l-53.215-39.585c-4.016-2.987-4.039-7.834-.047-10.821l52.876-39.589a12.839,12.839,0,0,1,14.5,0Z" transform="translate(-81.924 -153.267)" fill="#fff"/>
      <path id="Path_420" data-name="Path 420" d="M398.419,488.636a6.95,6.95,0,0,1-2.951,4.98l-52.876,39.59a12.281,12.281,0,0,1-7.476,2.232,12.642,12.642,0,0,1-6.273-1.725q-.388-.239-.752-.507l-53.216-39.585a6.838,6.838,0,0,1-3.028-5.447l-.046,20.19a6.824,6.824,0,0,0,3.028,5.448L328.044,553.4a10.62,10.62,0,0,0,2.986,1.536,13.214,13.214,0,0,0,9.448-.353,10.7,10.7,0,0,0,2.064-1.183l52.876-39.59A7.676,7.676,0,0,0,397.786,511a6.046,6.046,0,0,0,.61-2.56l.047-20.19A3.255,3.255,0,0,1,398.419,488.636Z" transform="translate(-81.891 -172.236)" fill="#121010"/>
      <path id="Path_422" data-name="Path 422" d="M441.026,271.539a67.028,67.028,0,0,0-8.873-30.369c-3.765-6.512-8.542-12.392-14.432-15.518-3.241-1.675-7.026-2.366-10.3-.507-.768.363-3.812,2.778-4.572,3.31,10.972-7.192,23.618,9.637,28.617,21,5.258,11.243,10.451,33.9.108,42.686.88-.72,3.912-2.8,4.653-3.628C440.128,284.537,441.165,277.638,441.026,271.539Z" transform="translate(-136.189 -77.736)" fill="#f59e27"/>
      <path id="Path_423" data-name="Path 423" d="M426.815,293.184c7.906-5.92,7.884-24.977-.049-42.564s-20.774-27.044-28.681-21.124-7.884,24.977.049,42.564S418.908,299.1,426.815,293.184Z" transform="translate(-132.289 -78.979)" fill="#fdbb2b"/>
      <path id="Path_424" data-name="Path 424" d="M425.513,286.515C416.2,288.29,407.972,272,406.776,261.539c-.594-4.841-.274-10.995,3.287-13.8-1.37,1-3.063,2.147-3.869,3.967-3.522,8.152-.027,19.181,3.862,26.154,3.275,5.656,9.575,12.914,15.35,9.166l1.779-1.332A5.282,5.282,0,0,1,425.513,286.515Z" transform="translate(-138.721 -84.959)" fill="#f59e27"/>
      <path id="Path_425" data-name="Path 425" d="M435.148,274.655a52.235,52.235,0,0,0-6.917-23.674c-2.932-5.08-6.659-9.657-11.249-12.1-2.523-1.307-5.474-1.839-8.024-.4a31.473,31.473,0,0,0-2.573,1.839c8.352-5.418,17.8,6.77,21.812,15.344,4.421,8.981,8.877,27.014.579,34.291l1.778-1.332C434.234,285.814,435.295,279.834,435.148,274.655Z" transform="translate(-138.542 -81.889)" fill="#f59e27"/>
      <path id="Path_426" data-name="Path 426" d="M413.906,242.279c8.726,6.491,15.783,22.233,15.755,35.161s-7.129,18.127-15.86,11.635-15.779-22.227-15.752-35.151S405.18,235.788,413.906,242.279Zm-.093,41.29c6.678,4.965,12.106.979,12.126-8.9s-5.37-21.92-12.048-26.885-12.1-.979-12.121,8.907S407.143,278.608,413.813,283.569Z" transform="translate(-135.366 -82.529)" fill="#fed430"/>
      <path id="Path_427" data-name="Path 427" d="M27.8,395.294l62.482,46.693,43.593-32.428L71.391,362.872Z" transform="translate(-12.409 -126.182)" fill="#27292d"/>
      <path id="Path_428" data-name="Path 428" d="M322.552,470.178a1.942,1.942,0,0,1,.016,3.3l-6.416,4.806a3.917,3.917,0,0,1-4.417,0l-6.462-4.806a1.94,1.94,0,0,1-.012-3.3l6.416-4.806a3.911,3.911,0,0,1,4.414,0Z" transform="translate(-104.599 -156.12)" fill="#e6e6e6"/>
      <path id="Path_429" data-name="Path 429" d="M323.442,474.695a2.111,2.111,0,0,1-.907,1.635l-6.416,4.806a3.723,3.723,0,0,1-1.635.641,3.9,3.9,0,0,1-2.782-.641l-6.461-4.806a2.088,2.088,0,0,1-.922-1.66l-.03,13.554a2.077,2.077,0,0,0,.922,1.66l6.462,4.807a3.039,3.039,0,0,0,.451.278,3.934,3.934,0,0,0,3.966-.278c.035-.03,6.423-4.807,6.454-4.831a2.108,2.108,0,0,0,.868-1.606Z" transform="translate(-104.575 -160.092)" fill="#c6c6c6"/>
      <path id="Path_433" data-name="Path 433" d="M84.352,431.693,31.029,391.765l36.738-27.332,53.327,39.927Z" transform="translate(-13.85 -126.072)" fill="#fff"/>
      <path id="Path_434" data-name="Path 434" d="M122.166,431.263l36.742-27.328.027,11.75-36.742,27.332Z" transform="translate(-53.898 -139.86)" fill="#c6c6c6"/>
      <path id="Path_435" data-name="Path 435" d="M162.586,400.221l0,2.649L125.852,430.2l.023,11.755,36.742-27.333.008,2.649-38.536,28.66-.034-17.044Z" transform="translate(-57.588 -138.877)" fill="#f59e27"/>
      <path id="Path_436" data-name="Path 436" d="M81.095,441.4,27.771,401.475l-.039-17.044L81.06,424.359Z" transform="translate(-12.378 -132.397)" fill="#fdbb2b"/>
      <path id="Path_437" data-name="Path 437" d="M81.06,412.838,27.732,372.91l38.532-28.664,53.327,39.927Z" transform="translate(-12.378 -119.185)" fill="#fed430"/>
      <path id="Path_438" data-name="Path 438" d="M90.845,395.145,46.407,361.873l28.56-21.244L119.405,373.9Z" transform="translate(-20.714 -117.257)" fill="#fff"/>
      <path id="Path_439" data-name="Path 439" d="M121.28,392.046,149.84,370.8l.027,11.75L135.951,395.59,121.307,403.8Z" transform="translate(-54.761 -128.116)" fill="#e6e6e6"/>
      <path id="Path_440" data-name="Path 440" d="M153.731,367.088l0,2.649-28.559,21.244.027,11.75,28.56-21.244.008,2.644-30.354,22.581-.039-17.044Z" transform="translate(-55.108 -125.074)" fill="#121010"/>
      <path id="Path_441" data-name="Path 441" d="M87.588,402.415,43.149,369.143,43.111,352.1,87.55,385.371Z" transform="translate(-19.243 -120.986)" fill="#121010"/>
      <path id="Path_442" data-name="Path 442" d="M87.551,376.3,43.113,343.023l30.354-22.581L117.9,353.715Z" transform="translate(-19.244 -110.398)" fill="#fff"/>
      <path id="Path_443" data-name="Path 443" d="M145.846,451.347s-1.648-5.95-5.127-9.16c-.621-.577-2.226-1.78-2.226-1.78l-5.686,4.26a22.312,22.312,0,0,1,2.211,1.764,24.276,24.276,0,0,1,5.127,9.166l1.52-5.075Z" transform="translate(-63.716 -149.669)" fill="#121010"/>
      <path id="Path_444" data-name="Path 444" d="M359.593,491.483l35.983,26.885,25.1-18.674L384.7,472.809Z" transform="translate(-118.832 -167.831)" fill="#27292d"/>
      <path id="Path_445" data-name="Path 445" d="M437.307,445.347v16.462a7.386,7.386,0,0,0,2.689,5.96l8.768,6.412a2.015,2.015,0,0,1-.012,3.036l-11.45,8.207" transform="translate(-151.128 -151.144)" fill="none" stroke="#e6e6e6" stroke-linecap="round" stroke-linejoin="round" stroke-miterlimit="10" stroke-width="3"/>
      <path id="Path_446" data-name="Path 446" d="M389.434,445.919c-.887,10.825-12.97,14.6-20.038,14.519-7.376.248-20.072-4.335-20.285-15.126l-.061,27.661c-.008,3.878,1.979,7.759,5.953,10.717,8.858,6.392,23.455,6.163,31.322-2.624a12.621,12.621,0,0,0,3.025-7.1c.016-.283.038-.566.038-.85l.062-27.661C389.449,445.611,389.442,445.765,389.434,445.919Z" transform="translate(-117.761 -151.338)" fill="#0a0a0b"/>
      <path id="Path_447" data-name="Path 447" d="M392.007,430.427l-35.847,26.84-36.083-26.84,35.848-26.84Z" transform="translate(-101.315 -142.151)" fill="#fff"/>
      <path id="Path_448" data-name="Path 448" d="M421.094,441.215l0,1.651-17.316,12.965-18.531,13.875,0-1.65Z" transform="translate(-130.516 -153.446)" fill="#1b1818"/>
      <path id="Path_449" data-name="Path 449" d="M356.156,468.056l0,1.65-36.082-26.84,0-1.651Z" transform="translate(-104.719 -155.245)" fill="#131111"/>
      <path id="Path_450" data-name="Path 450" d="M436.663,494.487a1,1,0,0,1,.008,1.7l-3.306,2.475a2.006,2.006,0,0,1-2.276,0l-3.33-2.475a1,1,0,0,1-.008-1.7l3.306-2.475a2.023,2.023,0,0,1,2.276,0Z" transform="translate(-147.927 -165.104)" fill="#e6e6e6"/>
      <path id="Path_451" data-name="Path 451" d="M437.124,496.819a1.1,1.1,0,0,1-.467.845l-3.306,2.475a1.944,1.944,0,0,1-.845.333,1.98,1.98,0,0,1-1.432-.328l-3.329-2.475a1.073,1.073,0,0,1-.474-.855l-.016,6.989a1.08,1.08,0,0,0,.474.854l3.33,2.475a1.835,1.835,0,0,0,.231.144,2.027,2.027,0,0,0,2.045-.144c.019-.015,3.31-2.48,3.325-2.49a1.075,1.075,0,0,0,.448-.83Z" transform="translate(-147.915 -167.151)" fill="#c6c6c6"/>
    </g>
  </g>
</svg>
