<svg xmlns="http://www.w3.org/2000/svg" width="367.071" height="286.036" viewBox="0 0 367.071 286.036">
  <path id="Path_142" data-name="Path 142" d="M2262.331,1234.827l-185.778-10.685-33.524,189.982,219.569,22.624Z" transform="translate(-2037.954 -1218.238)" fill="#ffce43"/>
  <g id="Mask_Group_11" data-name="Mask Group 11" transform="translate(0 0)">
    <g id="Group_113" data-name="Group 113">
      <g id="Group_107" data-name="Group 107" transform="translate(113.473 210.364)">
        <path id="Path_102" data-name="Path 102" d="M2140.08,1420.48l67.506-43.581-67.379-6.172C2151,1391.008,2147.159,1408.085,2140.08,1420.48Z" transform="translate(-2120.087 -1370.726)" fill="#2d2d2d"/>
        <path id="Path_103" data-name="Path 103" d="M2124.967,1440.676l89.594,1.283c38.39.55,1.257-66.5,1.257-66.5l-3.353-.308-67.505,43.581A71.988,71.988,0,0,1,2124.967,1440.676Z" transform="translate(-2124.967 -1368.979)" fill="#4c4c4c"/>
      </g>
      <path id="Path_104" data-name="Path 104" d="M2039.234,1414.691a10.637,10.637,0,0,0,9.287,11.694l318.785,25.433a8.691,8.691,0,0,0,9.517-7.5l29.333-195.074c.907-6.042-4.027-11.947-10.251-12.28L2077.8,1219.934a8.5,8.5,0,0,0-8.9,7.338l-29.613,186.918C2039.266,1414.358,2039.247,1414.524,2039.234,1414.691Zm13.038.664a2.922,2.922,0,0,1-.573-2.223l28.635-180.642a2.313,2.313,0,0,1,2.431-2l306.977,16.827a2.97,2.97,0,0,1,2.124,1.091,2.87,2.87,0,0,1,.668,2.258l-28.23,187.882a2.372,2.372,0,0,1-2.59,2.049l-307.488-24.135a2.714,2.714,0,0,1-1.949-1.106Z" transform="translate(-2039.193 -1219.909)" fill="#4c4c4c"/>
      <line id="Line_15" data-name="Line 15" x2="209.541" y2="1.081" transform="translate(17.09 283.455)" fill="none" stroke="#2d2d2d" stroke-miterlimit="10" stroke-width="3"/>
    </g>
  </g>
</svg>
