<svg xmlns="http://www.w3.org/2000/svg" xmlns:xlink="http://www.w3.org/1999/xlink" width="81.651" height="80" viewBox="0 0 81.651 73.839">
  <defs>
    <filter id="Path_5" x="0" y="0" width="81.651" height="54.636" filterUnits="userSpaceOnUse">
      <feOffset dy="3" input="SourceAlpha"/>
      <feGaussianBlur stdDeviation="3" result="blur"/>
      <feFlood flood-opacity="0.161"/>
      <feComposite operator="in" in2="blur"/>
      <feComposite in="SourceGraphic"/>
    </filter>
  </defs>
  <g id="Untitled-2" transform="translate(7.597 6)">
    <g transform="matrix(1, 0, 0, 1, -7.6, -6)" filter="url(#Path_5)">
      <path id="Path_5-2" data-name="Path 5" d="M47.483-997.463c-.992.061-2.252.184-2.409.238-.063.014-.339.061-.622.1a23.159,23.159,0,0,0-4,.85c-.087.068-.063.15.157.449a4.764,4.764,0,0,1,.905,3c-.024.354-.016.531.047.531a1.411,1.411,0,0,0,.4-.292,14.525,14.525,0,0,1,3.078-1.972,4.417,4.417,0,0,1,1.811-.347,19.491,19.491,0,0,1,2.189-.116c.126.007.134.354.134,6.332v6.318L49-982.29a2.654,2.654,0,0,1-.921.034c-2.338-.143-4.787-.374-6.03-.585-1.134-.184-2.5-.442-2.992-.551-1.252-.286-2.441-.585-2.795-.707-.236-.075-.276-.122-.26-.286a1.215,1.215,0,0,1,.134-.395c.055-.109.15-.279.189-.374a24.08,24.08,0,0,1,1.456-2.578,4.7,4.7,0,0,0,.433-.755c-.016-.027-.181.02-.378.1a9,9,0,0,1-.945.279l-.59.143-.449.775c-.244.428-.638,1.17-.866,1.646-.291.626-.449.871-.543.871a4.216,4.216,0,0,1-.976-.306c-.126-.048-.449-.17-.709-.272-.575-.218-1.645-.68-1.968-.843-.126-.068-.409-.2-.63-.306a4.344,4.344,0,0,1-1.3-.755,20.041,20.041,0,0,1,2.165-1.85,1.7,1.7,0,0,0,.354-.292,1.654,1.654,0,0,0-.323-.347,5.655,5.655,0,0,1-1.031-1.333,1.119,1.119,0,0,0-.22-.326,26.229,26.229,0,0,0-4.086,3.366,24.77,24.77,0,0,0-1.882,2.088,1.832,1.832,0,0,1-.2.238c-.11.1-1.26,1.68-1.606,2.217a27.643,27.643,0,0,0-1.6,2.877.434.434,0,0,1-.079.184,15.739,15.739,0,0,0-.89,2.088,22.658,22.658,0,0,0-1.039,3.775A36.07,36.07,0,0,0,18-970.089a28.733,28.733,0,0,0,.315,3.727c.031.034.213-.007.394-.089a7.5,7.5,0,0,1,1.795-.483l.567-.088-.008-.245c0-.129-.047-.633-.1-1.109a5.24,5.24,0,0,1-.047-.932c.031-.048,1.968-.061,5.361-.054l5.306.02.047.714c.134,1.877.244,2.986.307,3.23a2.859,2.859,0,0,1,.079.6,30.768,30.768,0,0,0,.677,3.707c.024.088.079.15.134.136a3.979,3.979,0,0,0,.63-.5l.535-.483-.079-.3c-.094-.354-.283-1.374-.4-2.135-.039-.3-.11-.775-.157-1.054a38.277,38.277,0,0,1-.213-3.836c.047-.1.89-.109,7.951-.109,6.038,0,7.92.021,7.991.082a2.5,2.5,0,0,1,.094,1.02v.939h1.417v-.911a7.078,7.078,0,0,1,.047-1.02c.047-.1.827-.109,8.022-.109,6.306,0,7.983.021,8.007.082a22.168,22.168,0,0,1-.134,2.639,31.212,31.212,0,0,1-.551,3.774c-.2,1.007-.2.993.449,1.537l.567.483.1-.367c.087-.32.252-1.149.5-2.469a32.89,32.89,0,0,0,.464-4.271,7.5,7.5,0,0,1,.142-1.347c.039-.034,2.134-.054,5.346-.048l5.267.02-.008.68a13.788,13.788,0,0,1-.15,1.564c-.071.483-.142,1.054-.15,1.258-.008.367-.008.374.228.395a8.944,8.944,0,0,1,1.842.53c.37.177.52.2.6.1a7.468,7.468,0,0,0,.268-1.428c.039-.279.1-.666.134-.85a55.43,55.43,0,0,0-.031-6.155,27.075,27.075,0,0,0-.693-3.264,25.22,25.22,0,0,0-1.795-4.591,27.107,27.107,0,0,0-2.141-3.475,30.964,30.964,0,0,0-11.486-9.46,37.394,37.394,0,0,0-3.7-1.517.232.232,0,0,1-.157-.068.217.217,0,0,0-.173-.068,1.32,1.32,0,0,1-.362-.1c-.142-.054-.425-.15-.646-.211s-.464-.143-.551-.17c-.189-.061-1.189-.313-2.126-.537-.89-.211-3-.537-4.448-.687C52.356-997.49,48.672-997.531,47.483-997.463Zm4.409,2.482c2.252.129,2.5.19,3.661.837a18.057,18.057,0,0,1,5.59,5.135c.315.442.354.469.583.435.307-.041,1.181-.2,1.212-.218a2.564,2.564,0,0,0-.331-.5,5.527,5.527,0,0,1-.362-.517,5.982,5.982,0,0,0-.433-.558c-.236-.292-.48-.585-.535-.66-.11-.15-.7-.809-.764-.857-.024-.02-.126-.129-.228-.238s-.567-.551-1.047-.973a6.167,6.167,0,0,1-.827-.809,2.385,2.385,0,0,1,.8.184c.087.027.339.1.551.17s.464.143.551.177.346.116.567.2a29.9,29.9,0,0,1,7.29,3.768,21.325,21.325,0,0,1,2.732,2.251,6.02,6.02,0,0,1-1.512.843c-.567.231-.575.252-.291.884a3.8,3.8,0,0,0,.276.551,2.445,2.445,0,0,0,.331-.156,4.068,4.068,0,0,1,.425-.2c.071-.02.488-.224.921-.449a4.943,4.943,0,0,1,.921-.415.542.542,0,0,1,.276.15c.441.442,2.236,2.639,2.378,2.911.031.054.1.163.15.231a25.743,25.743,0,0,1,1.756,2.931,26.7,26.7,0,0,1,1.22,2.958c.055.17.142.442.2.612.126.388.236.837.394,1.564.071.32.157.714.2.884a19.06,19.06,0,0,1,.3,2.822l-.024.408-5.235.014c-2.881.014-5.283-.007-5.346-.041-.079-.041-.118-.388-.173-1.34a35.324,35.324,0,0,0-.583-5.026c-.165-.8-.236-1.122-.362-1.721-.118-.564-.2-.605-.685-.32a1.23,1.23,0,0,1-.386.17.537.537,0,0,0-.252.129c-.126.109-.142.17-.079.394a39.839,39.839,0,0,1,.827,5.053c.15,2.333.157,2.557.087,2.639-.118.129-15.824.116-15.95-.014-.063-.061-.079-1.517-.071-5.182l.024-5.094,2.322-.15a33.785,33.785,0,0,0,3.936-.36,2.559,2.559,0,0,1,.559-.068c.276,0,.543-.15.4-.231a1.621,1.621,0,0,1-.173-.483c-.063-.265-.157-.476-.228-.5a5.4,5.4,0,0,0-.945.075c-1.023.136-1.921.224-3.669.354-1.622.122-2.023.129-2.149.02-.142-.122-.134-12.677.008-12.725a.786.786,0,0,1,.291-.007C51.1-995.028,51.506-995,51.892-994.98Zm-23.335,9.215c.346.184.653.34.669.34a3.435,3.435,0,0,1,.37.184A30.688,30.688,0,0,0,32.509-984a.251.251,0,0,1,.165.054,3.162,3.162,0,0,0,.614.252,4.115,4.115,0,0,1,.669.265c.071.054.039.218-.142.68a22.427,22.427,0,0,0-.779,2.435,2.043,2.043,0,0,1-.118.394,2.055,2.055,0,0,0-.118.422c-.047.2-.134.571-.2.837A41.415,41.415,0,0,0,31.7-972.3c-.047.694-.094,1.347-.1,1.462l-.016.2-5.22.02c-3.456.007-5.275-.007-5.369-.054-.11-.048-.142-.122-.118-.258.016-.1.071-.585.118-1.068a21.532,21.532,0,0,1,1.393-5.951c.15-.394.3-.775.339-.85s.236-.49.441-.918a28.62,28.62,0,0,1,1.567-2.754,20.232,20.232,0,0,1,3.07-3.638A3.455,3.455,0,0,1,28.557-985.765Zm7.369,2.884c.5.156,1.071.306,1.519.408.236.054.7.156,1.023.231,1.157.258,2.992.6,3.818.694.26.034.724.1,1.023.136,1.126.143,1.677.2,2.48.245.457.02,1.393.075,2.086.116l1.26.082.024,5.1c.016,4.733.008,5.108-.118,5.182-.1.068-1.811.088-7.928.088-4.385,0-7.849-.027-7.912-.061-.094-.054-.094-.32-.016-1.789.047-.945.126-1.952.165-2.231s.118-.755.165-1.054c.126-.864.315-1.85.48-2.584.236-1.006.276-1.183.417-1.666.071-.245.157-.551.2-.68a13.225,13.225,0,0,1,.8-2.217C35.517-983,35.556-983,35.926-982.882Z" transform="translate(-9 1003.5)" fill="#fff"/>
    </g>
    <path id="Path_6" data-name="Path 6" d="M541.174-851.688a4.185,4.185,0,0,0-2.244,1.088,3.171,3.171,0,0,0-1.331,2.822,2.928,2.928,0,0,0,.488,1.9,5.412,5.412,0,0,0,1.937,1.659,4.611,4.611,0,0,0,2.134.408,4.2,4.2,0,0,0,1.929-.32,4.246,4.246,0,0,0,2.543-2.455,4,4,0,0,0-.008-2.374,4.1,4.1,0,0,0-2.307-2.38,6.461,6.461,0,0,0-1.055-.354A6.318,6.318,0,0,0,541.174-851.688Zm1.582,1.19a3.478,3.478,0,0,1,1.645.755,2.529,2.529,0,0,1,.913,1.381,2.134,2.134,0,0,1-.063,1.387,2.651,2.651,0,0,1-.819,1.129,3.194,3.194,0,0,1-2.047.836,3.507,3.507,0,0,1-2.755-1.122,2.378,2.378,0,0,1-.63-1.394,2.4,2.4,0,0,1,.905-2.156,3.139,3.139,0,0,1,1.582-.789A2.858,2.858,0,0,1,542.757-850.5Z" transform="translate(-495.29 861.685)" fill="#fff"/>
    <path id="Path_7" data-name="Path 7" d="M185.015-992.356A4.267,4.267,0,0,0,181-988.343a4.06,4.06,0,0,0,1.488,2.911,5.287,5.287,0,0,0,3.732,1.041c2.134-.36,3.44-1.367,3.944-3.04.622-2.054-.882-4.237-3.338-4.849A7.09,7.09,0,0,0,185.015-992.356ZM187-990.873c1.874.8,2.441,2.741,1.212,4.128a3.018,3.018,0,0,1-1.212.857,2.356,2.356,0,0,1-1.354.224,2.474,2.474,0,0,1-1.354-.224,2.926,2.926,0,0,1-1.795-2.033,2.666,2.666,0,0,1,1.417-2.775,3.02,3.02,0,0,1,1.811-.415A2.515,2.515,0,0,1,187-990.873Z" transform="translate(-166.764 992.73)" fill="#fff"/>
    <path id="Path_8" data-name="Path 8" d="M3.628-530.748a4.42,4.42,0,0,0-3.275,2.863,3.35,3.35,0,0,0-.118,1.591,1.091,1.091,0,0,1,.134.381A4.219,4.219,0,0,0,2.778-523.3a5.365,5.365,0,0,0,2.944.374,3.965,3.965,0,0,0,1.323-.415,4.215,4.215,0,0,0,2.37-2.6,4.418,4.418,0,0,0-.024-2.013,5.783,5.783,0,0,0-.614-1.122,4.567,4.567,0,0,0-2.755-1.687A6.576,6.576,0,0,0,3.628-530.748Zm2.008,1.19a3.037,3.037,0,0,1,1.37.626,2.431,2.431,0,0,1,.52,3.6,3.4,3.4,0,0,1-1.378,1,5.689,5.689,0,0,1-.8.19,3.25,3.25,0,0,1-2.393-.551c-2.055-1.319-1.559-4.033.874-4.795A3.559,3.559,0,0,1,5.635-529.557Z" transform="translate(-0.178 562.603)" fill="#fff"/>
    <path id="Path_9" data-name="Path 9" d="M181.649-518.573a23.9,23.9,0,0,0-4.487.816c-.087.027-.425.143-.748.245a22.83,22.83,0,0,0-5.172,2.489,21.066,21.066,0,0,0-4.779,4.448c-.071.109-.276.394-.449.639a19.822,19.822,0,0,0-1.323,2.312c-.094.2-.2.435-.236.51s-.157.381-.268.68a13.845,13.845,0,0,0-.968,5.033,14.274,14.274,0,0,0,.693,5.169c.087.258.181.564.22.68a7.569,7.569,0,0,0,.323.816,18.092,18.092,0,0,0,1,1.938c.236.394.5.8.575.9a.729.729,0,0,1,.15.218,18.329,18.329,0,0,0,1.811,2.176,20.934,20.934,0,0,0,8.5,5.21,18.265,18.265,0,0,0,3.11.748,1.385,1.385,0,0,1,.464.1,18.291,18.291,0,0,0,3.582.1c1.9,0,3.393-.027,3.44-.061a2.236,2.236,0,0,1,.583-.136c.283-.041.669-.1.866-.136a28.584,28.584,0,0,0,2.866-.83.357.357,0,0,1,.181-.061,18.436,18.436,0,0,0,2.11-.884,19.472,19.472,0,0,0,4.417-2.952,17.514,17.514,0,0,0,3.574-4.087c.142-.224.283-.442.307-.476s.244-.469.472-.952.464-.986.527-1.109a.991.991,0,0,0,.11-.32.525.525,0,0,1,.071-.224,12.119,12.119,0,0,0,.638-2.156,16.132,16.132,0,0,0-.268-7.481,17.9,17.9,0,0,0-6.715-9.3,20.909,20.909,0,0,0-5.645-2.918c-.22-.075-.472-.156-.559-.19a24.461,24.461,0,0,0-4.015-.864A38.24,38.24,0,0,0,181.649-518.573Zm3.661,2.448a18.656,18.656,0,0,1,10.707,4.353,14,14,0,0,1,2.708,2.952c.283.394.52.735.52.755s.181.34.394.721a6,6,0,0,1,.394.755.919.919,0,0,0,.11.279,14.109,14.109,0,0,1,.819,2.5c.047.2.134.558.181.782a14.665,14.665,0,0,1,.118,1.87,11.072,11.072,0,0,1-.346,3.367,14.046,14.046,0,0,1-1.614,3.91,7.7,7.7,0,0,1-.661,1,.914.914,0,0,0-.181.258,8.794,8.794,0,0,1-.669.816,18.326,18.326,0,0,1-5.59,4.251c-.26.122-.5.245-.551.272s-.276.116-.512.2-.575.2-.748.272a12.383,12.383,0,0,1-1.378.449,19.383,19.383,0,0,1-2.362.5c-.283.041-.653.088-.827.116a24.6,24.6,0,0,1-5.393-.15,21.284,21.284,0,0,1-3.031-.741c-.173-.061-.378-.122-.449-.143s-.606-.245-1.181-.5a16.974,16.974,0,0,1-6.1-4.373A9.633,9.633,0,0,1,168.6-493c-.031-.054-.165-.258-.291-.442a13.519,13.519,0,0,1-1.315-2.516,1.276,1.276,0,0,0-.1-.272,9.025,9.025,0,0,1-.425-1.292,11.647,11.647,0,0,1-.417-3.741,12.851,12.851,0,0,1,.52-3.434,15.194,15.194,0,0,1,.685-1.823c.063-.116.157-.32.22-.442.2-.4.606-1.1.835-1.442.126-.19.26-.388.291-.442a15.763,15.763,0,0,1,1.173-1.462,19.574,19.574,0,0,1,3.377-2.856c.173-.109.331-.218.354-.238a23.39,23.39,0,0,1,2.606-1.312,24.1,24.1,0,0,1,3.456-1.075,21.194,21.194,0,0,1,2.874-.36A13.614,13.614,0,0,1,185.31-516.125Z" transform="translate(-150.369 551.183)" fill="#fff"/>
    <path id="Path_10" data-name="Path 10" d="M360.46-407.429a4.259,4.259,0,0,0-1.937.694,1.286,1.286,0,0,1-.559.211c-.457,0-1.559.592-1.559.837a.314.314,0,0,1-.11.177,2.734,2.734,0,0,0-.677,1.768,9.7,9.7,0,0,0,.236,1.768.366.366,0,0,1-.1.428c-.142.163-.173.292-.165.653a1.066,1.066,0,0,0,.653,1.095c.236.109.307.2.441.524a4.578,4.578,0,0,0,.2.5c.032.054.165.3.3.544a3.6,3.6,0,0,0,1.858,1.544,3.546,3.546,0,0,0,3.425.1,6.551,6.551,0,0,0,1.6-.932,6.719,6.719,0,0,0,1.165-1.959.59.59,0,0,1,.354-.354,1.023,1.023,0,0,0,.653-.857c.087-.422-.008-.789-.22-.9a3.784,3.784,0,0,1-.087-1.238,5.22,5.22,0,0,0-.15-1.666,3.535,3.535,0,0,0-2.559-2.435,6.473,6.473,0,0,0-.866-.184,4.281,4.281,0,0,1-.8-.19A2.484,2.484,0,0,0,360.46-407.429Z" transform="translate(-327.606 447.568)" fill="#fff"/>
    <path id="Path_11" data-name="Path 11" d="M278.02-235.626c-.433.2-1.031.476-1.338.605-.622.279-1.244.571-1.795.864a2.989,2.989,0,0,1-.417.2c-.063,0-1.685.884-2.118,1.156a3.419,3.419,0,0,0-1.134,1.1,10.575,10.575,0,0,0-.622,1.721c-.047.184-.1.422-.126.524-.055.211.063.347,1.094,1.265a16.234,16.234,0,0,0,7.912,3.693,26.953,26.953,0,0,0,2.992.265,28.6,28.6,0,0,0,2.873-.245,18.475,18.475,0,0,0,5.133-1.7,17.146,17.146,0,0,0,2.968-2.088l1.016-.884-.047-.36a3.062,3.062,0,0,0-.126-.585c-.039-.122-.134-.422-.213-.667a3.518,3.518,0,0,0-1.094-1.755,18.886,18.886,0,0,0-2.6-1.483c-.213-.1-.5-.238-.63-.306-.8-.408-3.629-1.693-3.724-1.693a7.314,7.314,0,0,0-.362,1.8c-.016.109-.071.388-.11.612s-.126.666-.173.986-.142.85-.2,1.19-.15.871-.2,1.19c-.11.646-.087.605-1.016,1.734-.37.456-.827,1.027-1.023,1.279a1.628,1.628,0,0,1-.449.456,8.067,8.067,0,0,1-.96-1.047c-1.449-1.741-1.464-1.775-1.575-2.387-.055-.3-.189-1.047-.291-1.666s-.228-1.306-.268-1.53c-.346-2.1-.449-2.618-.535-2.612C278.831-235.993,278.453-235.823,278.02-235.626Z" transform="translate(-249.181 287.789)" fill="#fff"/>
    <path id="Path_12" data-name="Path 12" d="M405.574-215.606c-.74.612-.724.544-.354,1.054.354.483.346.428.055,1.34-.071.2-.181.558-.26.782s-.157.517-.189.646-.1.347-.15.476c-.094.258-.079.292,1,1.557l.433.5.142-.163c.079-.088.409-.5.732-.911l.583-.748-.2-.646c-.11-.354-.252-.816-.315-1.02s-.142-.483-.181-.612-.11-.36-.165-.51c-.087-.265-.079-.286.236-.694a4.318,4.318,0,0,0,.323-.462,10.167,10.167,0,0,0-1.173-.986A4.915,4.915,0,0,0,405.574-215.606Z" transform="translate(-372.798 269.149)" fill="#fff"/>
    <path id="Path_13" data-name="Path 13" d="M722.481-509.58a4.512,4.512,0,0,0-3.33,2.693,3.627,3.627,0,0,0,.276,3.033c.039.054.126.2.2.326a5.174,5.174,0,0,0,1.771,1.4,4.339,4.339,0,0,0,2.071.428,3.73,3.73,0,0,0,1.472-.143,4.342,4.342,0,0,0,3.173-2.986,2.951,2.951,0,0,0,.016-1.612,3.308,3.308,0,0,0-.89-1.673,4.916,4.916,0,0,0-2.267-1.387A5.717,5.717,0,0,0,722.481-509.58Zm1.567,1.177a5.294,5.294,0,0,1,.858.211,3.836,3.836,0,0,1,1.527,1.3c.26.408.268.449.268,1.2,0,.728-.016.809-.228,1.177a3.868,3.868,0,0,1-1.354,1.279,3.993,3.993,0,0,1-1.527.333,3.065,3.065,0,0,1-3.228-2.782,2.948,2.948,0,0,1,2.6-2.7A2.03,2.03,0,0,1,724.048-508.4Z" transform="translate(-662.356 542.857)" fill="#fff"/>
    <path id="Path_14" data-name="Path 14" d="M72.585-408.8a5.433,5.433,0,0,1-1.023.435,6.575,6.575,0,0,1-1.22.272c-.189,0-.189.109,0,.374.079.109.22.326.315.476s.291.415.441.6a2.3,2.3,0,0,1,.268.354c0,.061,1.252,1.53,1.882,2.21.512.551,1.063,1.088,1.606,1.578.173.156.268.116.331-.17a14.4,14.4,0,0,1,.756-2.387c.071-.1.047-.156-.11-.272a21,21,0,0,1-2.543-3.013,2.252,2.252,0,0,0-.464-.558A.689.689,0,0,0,72.585-408.8Z" transform="translate(-64.687 448.93)" fill="#fff"/>
    <path id="Path_15" data-name="Path 15" d="M704.364-389.538a22.993,22.993,0,0,1-1.567,1.8l-.2.184.134.36a19.08,19.08,0,0,1,.622,1.986c.063.224.15.408.2.408a2.265,2.265,0,0,0,.535-.442l.7-.68c.4-.4.866-.891,1.228-1.326.189-.224.362-.422.386-.442a9.535,9.535,0,0,0,.953-1.279c0-.041-.063-.082-.142-.082a7,7,0,0,1-1.826-.673,3.716,3.716,0,0,0-.59-.279A2.268,2.268,0,0,0,704.364-389.538Z" transform="translate(-647.3 431.315)" fill="#fff"/>
  </g>
</svg>
