<svg xmlns="http://www.w3.org/2000/svg" width="15.878" height="25.413" viewBox="0 0 15.878 25.413">
  <path id="Path_202" data-name="Path 202" d="M105.934-1020.691a2.412,2.412,0,0,0-1.93,1.943c-.039.218-.039,21.241,0,21.459a2.4,2.4,0,0,0,1.883,1.933c.231.049.446.049,6.109.044l5.871-.008.208-.06a2.422,2.422,0,0,0,1.748-1.909c.039-.218.039-21.241,0-21.459a2.43,2.43,0,0,0-1.756-1.912l-.2-.057-5.876-.005C107.3-1020.725,106.08-1020.72,105.934-1020.691Zm12.335,11.09v7.938H105.558v-15.876H118.27Zm-5.915,9.588a1.684,1.684,0,0,1,.8.54,1.587,1.587,0,0,1-.451,2.363,1.381,1.381,0,0,1-.8.2,1.438,1.438,0,0,1-.809-.223,1.7,1.7,0,0,1-.721-.983,1.608,1.608,0,0,1,.968-1.852,2.015,2.015,0,0,1,.3-.091A2.089,2.089,0,0,1,112.355-1000.013Z" transform="translate(-103.975 1020.723)" fill="#7a7a7a"/>
</svg>
