<svg xmlns="http://www.w3.org/2000/svg" width="42" height="80" viewBox="0 0 42 67.224">
  <path id="Demand-595b40b75ba036ed117d5bad" d="M15.636,2a1.341,1.341,0,0,0-1.273,1.4V31.41a1.341,1.341,0,0,0,1.273,1.4H30.909v5.862a3.552,3.552,0,0,0-.549.3,3.849,3.849,0,0,0-1.588,2.511l-1.78,9.4-5.282,2.787-7.825,0C9.02,54.092,8,57.562,8,60.4v7.424a1.341,1.341,0,0,0,1.273,1.4H25.818a1.341,1.341,0,0,0,1.273-1.4V61.641l4.865-4.21a5.843,5.843,0,0,0,1.725-3.042l2.165-11.22a4.431,4.431,0,0,0-.487-2.979,3.541,3.541,0,0,0-1.9-1.619V32.811H48.727A1.341,1.341,0,0,0,50,31.41V3.4A1.341,1.341,0,0,0,48.727,2ZM30.909,9h2.545v11.2H30.909Zm1.273,14a1.407,1.407,0,1,1-1.273,1.4A1.342,1.342,0,0,1,32.182,23.007Zm-14.636,14c-3.866,0-7,3.449-7,7.7s3.134,7.7,7,7.7,7-3.449,7-7.7-3.134-7.7-7-7.7Z" transform="translate(-8 -2)" fill="#fff"/>
</svg>
