<svg xmlns="http://www.w3.org/2000/svg" xmlns:xlink="http://www.w3.org/1999/xlink" width="136.705" height="136.704" viewBox="0 0 136.705 136.704">
  <defs>
    <linearGradient id="linear-gradient" y1="0.5" x2="1" y2="0.5" gradientUnits="objectBoundingBox">
      <stop offset="0" stop-color="#ccc"/>
      <stop offset="0.52" stop-color="#dbbc63"/>
      <stop offset="1" stop-color="#eaad00"/>
    </linearGradient>
  </defs>
  <path id="Path_459" data-name="Path 459" d="M2267.707,1222.888h-10.228a59.72,59.72,0,0,0-3.227-6.635l5.918-6.59a3.715,3.715,0,0,0-.281-5.242l-21.8-19.577a3.714,3.714,0,0,0-5.242.282l-5.677,6.321a59.064,59.064,0,0,0-6.079-2.367v-7.369a3.709,3.709,0,0,0-3.711-3.711h-29.3a3.712,3.712,0,0,0-3.714,3.711v7.369a58.388,58.388,0,0,0-6.681,2.642l-5.925-6.6a3.71,3.71,0,0,0-5.238-.282l-21.806,19.577a3.716,3.716,0,0,0-.282,5.242l6.436,7.168a58.677,58.677,0,0,0-2.893,6.057h-9.548a3.71,3.71,0,0,0-3.712,3.711v29.3a3.71,3.71,0,0,0,3.712,3.711h6.874a58.867,58.867,0,0,0,3.359,9.757l-6.777,7.55a3.712,3.712,0,0,0,.278,5.242l21.8,19.578a3.716,3.716,0,0,0,5.243-.282l4.236-4.717a58.886,58.886,0,0,0,10.917,4.842v9.409a3.712,3.712,0,0,0,3.714,3.711h29.3a3.709,3.709,0,0,0,3.711-3.711v-9.409a58.985,58.985,0,0,0,12.376-5.685l4.991,5.559a3.711,3.711,0,0,0,5.24.282l21.805-19.578a3.715,3.715,0,0,0,.282-5.242l-8.275-9.214a59,59,0,0,0,2.642-8.094h7.557a3.709,3.709,0,0,0,3.71-3.711v-29.3A3.709,3.709,0,0,0,2267.707,1222.888Zm-64.131,61.722a40.808,40.808,0,1,1,40.808-40.808A40.81,40.81,0,0,1,2203.576,1284.61Z" transform="translate(-2134.713 -1178)" opacity="0.17" fill="url(#linear-gradient)"/>
</svg>
