<svg xmlns="http://www.w3.org/2000/svg" width="104.679" height="165.237" viewBox="0 0 104.679 165.237">
  <g id="Group_277" data-name="Group 277" transform="translate(-1275.321 -2467.628)">
    <rect id="Rectangle_259" data-name="Rectangle 259" width="56.025" height="141.014" transform="translate(1275.321 2491.851)" fill="#777"/>
    <path id="Path_188" data-name="Path 188" d="M1355.673,2467.628l-24.327,24.223v141.014h35.785A12.869,12.869,0,0,0,1380,2620V2491.851Z" fill="#3d3d3d"/>
    <path id="Path_189" data-name="Path 189" d="M1304.071,2467.628h51.6l-24.327,24.223h-56.025Z" fill="#777"/>
    <rect id="Rectangle_260" data-name="Rectangle 260" width="56.025" height="141.014" transform="translate(1275.321 2491.851)" fill="#ffc200" opacity="0.4"/>
    <rect id="Rectangle_261" data-name="Rectangle 261" width="49.9" height="134.159" transform="translate(1278.1 2495)" fill="#606060"/>
    <g id="Group_259" data-name="Group 259">
      <rect id="Rectangle_262" data-name="Rectangle 262" width="6.485" height="9.264" transform="translate(1321.639 2516.143) rotate(-180)" fill="#303030"/>
      <rect id="Rectangle_263" data-name="Rectangle 263" width="4.632" height="7.411" transform="translate(1321.639 2516.143) rotate(-180)" fill="#4c4c4c"/>
    </g>
    <g id="Group_260" data-name="Group 260">
      <rect id="Rectangle_264" data-name="Rectangle 264" width="6.485" height="9.264" transform="translate(1291.069 2515.217) rotate(-180)" fill="#303030"/>
      <rect id="Rectangle_265" data-name="Rectangle 265" width="4.632" height="7.411" transform="translate(1291.069 2515.217) rotate(-180)" fill="#4c4c4c"/>
    </g>
    <g id="Group_261" data-name="Group 261">
      <rect id="Rectangle_266" data-name="Rectangle 266" width="6.485" height="9.264" transform="translate(1306.818 2515.217) rotate(-180)" fill="#303030"/>
      <rect id="Rectangle_267" data-name="Rectangle 267" width="4.632" height="7.411" transform="translate(1306.818 2515.217) rotate(-180)" fill="#4c4c4c"/>
    </g>
    <g id="Group_262" data-name="Group 262">
      <rect id="Rectangle_268" data-name="Rectangle 268" width="6.485" height="9.264" transform="translate(1321.639 2538.376) rotate(-180)" fill="#303030"/>
      <rect id="Rectangle_269" data-name="Rectangle 269" width="4.632" height="7.411" transform="translate(1321.639 2538.376) rotate(-180)" fill="#4c4c4c"/>
    </g>
    <g id="Group_263" data-name="Group 263">
      <rect id="Rectangle_270" data-name="Rectangle 270" width="6.485" height="9.264" transform="translate(1291.069 2537.449) rotate(-180)" fill="#303030"/>
      <rect id="Rectangle_271" data-name="Rectangle 271" width="4.632" height="7.411" transform="translate(1291.069 2537.449) rotate(-180)" fill="#4c4c4c"/>
    </g>
    <g id="Group_264" data-name="Group 264">
      <rect id="Rectangle_272" data-name="Rectangle 272" width="6.485" height="9.264" transform="translate(1306.818 2537.449) rotate(-180)" fill="#303030"/>
      <rect id="Rectangle_273" data-name="Rectangle 273" width="4.632" height="7.411" transform="translate(1306.818 2537.449) rotate(-180)" fill="#4c4c4c"/>
    </g>
    <g id="Group_265" data-name="Group 265">
      <rect id="Rectangle_274" data-name="Rectangle 274" width="6.485" height="9.264" transform="translate(1321.639 2560.609) rotate(-180)" fill="#303030"/>
      <rect id="Rectangle_275" data-name="Rectangle 275" width="4.632" height="7.411" transform="translate(1321.639 2560.609) rotate(-180)" fill="#4c4c4c"/>
    </g>
    <g id="Group_266" data-name="Group 266">
      <rect id="Rectangle_276" data-name="Rectangle 276" width="6.485" height="9.264" transform="translate(1291.069 2559.682) rotate(-180)" fill="#303030"/>
      <rect id="Rectangle_277" data-name="Rectangle 277" width="4.632" height="7.411" transform="translate(1291.069 2559.682) rotate(-180)" fill="#4c4c4c"/>
    </g>
    <g id="Group_267" data-name="Group 267">
      <rect id="Rectangle_278" data-name="Rectangle 278" width="6.485" height="9.264" transform="translate(1306.818 2559.682) rotate(-180)" fill="#303030"/>
      <rect id="Rectangle_279" data-name="Rectangle 279" width="4.632" height="7.411" transform="translate(1306.818 2559.682) rotate(-180)" fill="#4c4c4c"/>
    </g>
    <g id="Group_268" data-name="Group 268">
      <rect id="Rectangle_280" data-name="Rectangle 280" width="6.485" height="9.264" transform="translate(1321.639 2582.841) rotate(-180)" fill="#303030"/>
      <rect id="Rectangle_281" data-name="Rectangle 281" width="4.632" height="7.411" transform="translate(1321.639 2582.841) rotate(-180)" fill="#4c4c4c"/>
    </g>
    <g id="Group_269" data-name="Group 269">
      <rect id="Rectangle_282" data-name="Rectangle 282" width="6.485" height="9.264" transform="translate(1291.069 2581.915) rotate(-180)" fill="#303030"/>
      <rect id="Rectangle_283" data-name="Rectangle 283" width="4.632" height="7.411" transform="translate(1291.069 2581.915) rotate(-180)" fill="#4c4c4c"/>
    </g>
    <g id="Group_270" data-name="Group 270">
      <rect id="Rectangle_284" data-name="Rectangle 284" width="6.485" height="9.264" transform="translate(1306.818 2581.915) rotate(-180)" fill="#303030"/>
      <rect id="Rectangle_285" data-name="Rectangle 285" width="4.632" height="7.411" transform="translate(1306.818 2581.915) rotate(-180)" fill="#4c4c4c"/>
    </g>
    <g id="Group_271" data-name="Group 271">
      <rect id="Rectangle_286" data-name="Rectangle 286" width="6.485" height="9.264" transform="translate(1321.639 2605.074) rotate(-180)" fill="#303030"/>
      <rect id="Rectangle_287" data-name="Rectangle 287" width="4.632" height="7.411" transform="translate(1321.639 2605.074) rotate(-180)" fill="#4c4c4c"/>
    </g>
    <g id="Group_272" data-name="Group 272">
      <rect id="Rectangle_288" data-name="Rectangle 288" width="6.485" height="9.264" transform="translate(1291.069 2604.147) rotate(-180)" fill="#303030"/>
      <rect id="Rectangle_289" data-name="Rectangle 289" width="4.632" height="7.411" transform="translate(1291.069 2604.147) rotate(-180)" fill="#4c4c4c"/>
    </g>
    <g id="Group_273" data-name="Group 273">
      <rect id="Rectangle_290" data-name="Rectangle 290" width="6.485" height="9.264" transform="translate(1306.818 2604.147) rotate(-180)" fill="#303030"/>
      <rect id="Rectangle_291" data-name="Rectangle 291" width="4.632" height="7.411" transform="translate(1306.818 2604.147) rotate(-180)" fill="#4c4c4c"/>
    </g>
    <g id="Group_274" data-name="Group 274">
      <rect id="Rectangle_292" data-name="Rectangle 292" width="6.485" height="9.264" transform="translate(1321.639 2627.306) rotate(-180)" fill="#303030"/>
      <rect id="Rectangle_293" data-name="Rectangle 293" width="4.632" height="7.411" transform="translate(1321.639 2627.306) rotate(-180)" fill="#4c4c4c"/>
    </g>
    <g id="Group_275" data-name="Group 275">
      <rect id="Rectangle_294" data-name="Rectangle 294" width="6.485" height="9.264" transform="translate(1291.069 2626.38) rotate(-180)" fill="#303030"/>
      <rect id="Rectangle_295" data-name="Rectangle 295" width="4.632" height="7.411" transform="translate(1291.069 2626.38) rotate(-180)" fill="#4c4c4c"/>
    </g>
    <g id="Group_276" data-name="Group 276">
      <rect id="Rectangle_296" data-name="Rectangle 296" width="6.485" height="9.264" transform="translate(1306.818 2626.38) rotate(-180)" fill="#303030"/>
      <rect id="Rectangle_297" data-name="Rectangle 297" width="4.632" height="7.411" transform="translate(1306.818 2626.38) rotate(-180)" fill="#4c4c4c"/>
    </g>
  </g>
</svg>
