<svg xmlns="http://www.w3.org/2000/svg" width="299" height="318.958" viewBox="0 0 299 318.958">
  <g id="Group_231" data-name="Group 231" transform="translate(-1061 -2192.798)">
    <g id="Group_176" data-name="Group 176">
      <g id="Group_163" data-name="Group 163">
        <g id="Group_162" data-name="Group 162">
          <path id="Path_162" data-name="Path 162" d="M1229.182,2253.672V2293.4h39.726v-39.726Zm33.617,3.579-30.038,30.038v-30.038Zm-27.507,32.568,30.037-30.037v30.037Z" fill="#3d3d3d"/>
        </g>
      </g>
      <g id="Group_165" data-name="Group 165">
        <g id="Group_164" data-name="Group 164">
          <path id="Path_163" data-name="Path 163" d="M1229.182,2290.262v39.725h39.726v-39.725Zm33.617,3.579-30.038,30.037v-30.037Zm-27.507,32.568,30.037-30.038v30.038Z" fill="#3d3d3d"/>
        </g>
      </g>
      <g id="Group_167" data-name="Group 167">
        <g id="Group_166" data-name="Group 166">
          <path id="Path_164" data-name="Path 164" d="M1229.182,2326.851v39.726h39.726v-39.726Zm33.617,3.579-30.038,30.038V2330.43ZM1235.292,2363l30.037-30.038V2363Z" fill="#3d3d3d"/>
        </g>
      </g>
      <g id="Group_169" data-name="Group 169">
        <g id="Group_168" data-name="Group 168">
          <path id="Path_165" data-name="Path 165" d="M1229.182,2363.441v39.725h39.726v-39.725Zm33.617,3.578-30.038,30.038v-30.038Zm-27.507,32.568,30.037-30.037v30.037Z" fill="#3d3d3d"/>
        </g>
      </g>
      <g id="Group_171" data-name="Group 171">
        <g id="Group_170" data-name="Group 170">
          <path id="Path_166" data-name="Path 166" d="M1229.182,2400.03v39.726h39.726V2400.03Zm33.617,3.579-30.038,30.037v-30.037Zm-27.507,32.568,30.037-30.038v30.038Z" fill="#3d3d3d"/>
        </g>
      </g>
      <g id="Group_173" data-name="Group 173">
        <g id="Group_172" data-name="Group 172">
          <path id="Path_167" data-name="Path 167" d="M1229.182,2436.03v39.726h39.726V2436.03Zm33.617,3.579-30.038,30.037v-30.037Zm-27.507,32.568,30.037-30.038v30.038Z" fill="#3d3d3d"/>
        </g>
      </g>
      <g id="Group_175" data-name="Group 175">
        <g id="Group_174" data-name="Group 174">
          <path id="Path_168" data-name="Path 168" d="M1229.182,2472.03v39.726h39.726V2472.03Zm33.617,3.579-30.038,30.037v-30.037Zm-27.507,32.568,30.037-30.038v30.038Z" fill="#3d3d3d"/>
        </g>
      </g>
    </g>
    <g id="Group_178" data-name="Group 178">
      <g id="Group_177" data-name="Group 177">
        <rect id="Rectangle_203" data-name="Rectangle 203" width="47.298" height="32.846" transform="translate(1221.61 2220.827)" fill="#3d3d3d"/>
      </g>
    </g>
    <g id="Group_180" data-name="Group 180">
      <g id="Group_179" data-name="Group 179">
        <rect id="Rectangle_204" data-name="Rectangle 204" width="42.042" height="22.773" transform="translate(1317.958 2220.827)" fill="#3d3d3d"/>
      </g>
    </g>
    <g id="Group_182" data-name="Group 182">
      <g id="Group_181" data-name="Group 181">
        <rect id="Rectangle_205" data-name="Rectangle 205" width="298.239" height="3.066" transform="translate(1061.761 2217.761)" fill="#3d3d3d"/>
      </g>
    </g>
    <g id="Group_192" data-name="Group 192">
      <g id="Group_185" data-name="Group 185">
        <g id="Group_184" data-name="Group 184">
          <g id="Group_183" data-name="Group 183">
            <path id="Path_169" data-name="Path 169" d="M1359.837,2218.637h-58.521l7.436-25.839H1352.4Zm-56.124-1.752h53.726l-6.428-22.335h-40.869Z" fill="#3d3d3d"/>
          </g>
        </g>
      </g>
      <g id="Group_188" data-name="Group 188">
        <g id="Group_187" data-name="Group 187">
          <g id="Group_186" data-name="Group 186">
            <path id="Path_170" data-name="Path 170" d="M1332.629,2218.637h-23.27a.9.9,0,0,1-.913-.876v-24.087a.878.878,0,0,1,.579-.815.941.941,0,0,1,1,.22l23.271,24.086a.851.851,0,0,1,.167.946A.914.914,0,0,1,1332.629,2218.637Zm-22.358-1.752h20.268l-20.268-20.978Z" fill="#3d3d3d"/>
          </g>
        </g>
      </g>
      <g id="Group_191" data-name="Group 191">
        <g id="Group_190" data-name="Group 190">
          <g id="Group_189" data-name="Group 189">
            <path id="Path_171" data-name="Path 171" d="M1356.357,2218.637h-23.271a.9.9,0,0,1-.913-.876v-24.087a.878.878,0,0,1,.579-.815.942.942,0,0,1,1,.22l23.271,24.086a.851.851,0,0,1,.167.946A.914.914,0,0,1,1356.357,2218.637ZM1334,2216.885h20.268L1334,2195.907Z" fill="#3d3d3d"/>
          </g>
        </g>
      </g>
    </g>
    <g id="Group_194" data-name="Group 194">
      <g id="Group_193" data-name="Group 193">
        <path id="Path_172" data-name="Path 172" d="M1359.124,2217.323" fill="#3d3d3d"/>
      </g>
    </g>
    <g id="Group_196" data-name="Group 196">
      <g id="Group_195" data-name="Group 195">
        <path id="Path_173" data-name="Path 173" d="M1252.152,2220.827H1061l13.145-19.708h164.862Zm-187.878-1.752h184.6l-10.808-16.2H1075.082Z" fill="#3d3d3d"/>
      </g>
    </g>
    <g id="Group_199" data-name="Group 199">
      <g id="Group_198" data-name="Group 198">
        <g id="Group_197" data-name="Group 197">
          <path id="Path_174" data-name="Path 174" d="M1089.751,2219.075h-14.594a.561.561,0,0,1-.572-.549V2203.42a.551.551,0,0,1,.363-.511.59.59,0,0,1,.629.138l14.593,15.1a.532.532,0,0,1,.1.593A.572.572,0,0,1,1089.751,2219.075Zm-14.021-1.1h12.71l-12.71-13.155Z" fill="#3d3d3d"/>
        </g>
      </g>
    </g>
    <g id="Group_202" data-name="Group 202">
      <g id="Group_201" data-name="Group 201">
        <g id="Group_200" data-name="Group 200">
          <path id="Path_175" data-name="Path 175" d="M1105.517,2219.075h-14.594a.561.561,0,0,1-.572-.549V2203.42a.551.551,0,0,1,.363-.511.59.59,0,0,1,.629.138l14.593,15.1a.532.532,0,0,1,.1.593A.572.572,0,0,1,1105.517,2219.075Zm-14.022-1.1h12.71l-12.71-13.155Z" fill="#3d3d3d"/>
        </g>
      </g>
    </g>
    <g id="Group_205" data-name="Group 205">
      <g id="Group_204" data-name="Group 204">
        <g id="Group_203" data-name="Group 203">
          <path id="Path_176" data-name="Path 176" d="M1121.283,2219.075h-14.594a.561.561,0,0,1-.572-.549V2203.42a.551.551,0,0,1,.363-.511.59.59,0,0,1,.629.138l14.593,15.1a.532.532,0,0,1,.1.593A.572.572,0,0,1,1121.283,2219.075Zm-14.022-1.1h12.71l-12.71-13.155Z" fill="#3d3d3d"/>
        </g>
      </g>
    </g>
    <g id="Group_208" data-name="Group 208">
      <g id="Group_207" data-name="Group 207">
        <g id="Group_206" data-name="Group 206">
          <path id="Path_177" data-name="Path 177" d="M1137.048,2219.075h-14.593a.561.561,0,0,1-.572-.549V2203.42a.551.551,0,0,1,.363-.511.59.59,0,0,1,.629.138l14.593,15.1a.532.532,0,0,1,.1.593A.573.573,0,0,1,1137.048,2219.075Zm-14.021-1.1h12.71l-12.71-13.155Z" fill="#3d3d3d"/>
        </g>
      </g>
    </g>
    <g id="Group_211" data-name="Group 211">
      <g id="Group_210" data-name="Group 210">
        <g id="Group_209" data-name="Group 209">
          <path id="Path_178" data-name="Path 178" d="M1152.814,2219.075h-14.593a.561.561,0,0,1-.572-.549V2203.42a.551.551,0,0,1,.363-.511.59.59,0,0,1,.629.138l14.593,15.1a.532.532,0,0,1,.1.593A.573.573,0,0,1,1152.814,2219.075Zm-14.021-1.1h12.71l-12.71-13.155Z" fill="#3d3d3d"/>
        </g>
      </g>
    </g>
    <g id="Group_214" data-name="Group 214">
      <g id="Group_213" data-name="Group 213">
        <g id="Group_212" data-name="Group 212">
          <path id="Path_179" data-name="Path 179" d="M1168.58,2219.075h-14.593a.561.561,0,0,1-.572-.549V2203.42a.551.551,0,0,1,.363-.511.591.591,0,0,1,.629.138l14.593,15.1a.532.532,0,0,1,.1.593A.573.573,0,0,1,1168.58,2219.075Zm-14.021-1.1h12.71l-12.71-13.155Z" fill="#3d3d3d"/>
        </g>
      </g>
    </g>
    <g id="Group_217" data-name="Group 217">
      <g id="Group_216" data-name="Group 216">
        <g id="Group_215" data-name="Group 215">
          <path id="Path_180" data-name="Path 180" d="M1184.346,2219.075h-14.593a.562.562,0,0,1-.573-.549V2203.42a.552.552,0,0,1,.364-.511.589.589,0,0,1,.628.138l14.594,15.1a.534.534,0,0,1,.1.593A.573.573,0,0,1,1184.346,2219.075Zm-14.021-1.1h12.71l-12.71-13.155Z" fill="#3d3d3d"/>
        </g>
      </g>
    </g>
    <g id="Group_220" data-name="Group 220">
      <g id="Group_219" data-name="Group 219">
        <g id="Group_218" data-name="Group 218">
          <path id="Path_181" data-name="Path 181" d="M1200.112,2219.075h-14.593a.562.562,0,0,1-.573-.549V2203.42a.552.552,0,0,1,.364-.511.588.588,0,0,1,.628.138l14.594,15.1a.534.534,0,0,1,.1.593A.573.573,0,0,1,1200.112,2219.075Zm-14.021-1.1h12.71l-12.71-13.155Z" fill="#3d3d3d"/>
        </g>
      </g>
    </g>
    <g id="Group_223" data-name="Group 223">
      <g id="Group_222" data-name="Group 222">
        <g id="Group_221" data-name="Group 221">
          <path id="Path_182" data-name="Path 182" d="M1215.878,2219.075h-14.593a.562.562,0,0,1-.573-.549V2203.42a.552.552,0,0,1,.364-.511.588.588,0,0,1,.628.138l14.594,15.1a.534.534,0,0,1,.1.593A.573.573,0,0,1,1215.878,2219.075Zm-14.021-1.1h12.71l-12.71-13.155Z" fill="#3d3d3d"/>
        </g>
      </g>
    </g>
    <g id="Group_226" data-name="Group 226">
      <g id="Group_225" data-name="Group 225">
        <g id="Group_224" data-name="Group 224">
          <path id="Path_183" data-name="Path 183" d="M1231.644,2219.075h-14.593a.561.561,0,0,1-.573-.549V2203.42a.551.551,0,0,1,.364-.511.588.588,0,0,1,.628.138l14.594,15.1a.534.534,0,0,1,.1.593A.575.575,0,0,1,1231.644,2219.075Zm-14.021-1.1h12.71l-12.71-13.155Z" fill="#3d3d3d"/>
        </g>
      </g>
    </g>
    <g id="Group_229" data-name="Group 229">
      <g id="Group_228" data-name="Group 228">
        <g id="Group_227" data-name="Group 227">
          <path id="Path_184" data-name="Path 184" d="M1247.41,2219.075h-14.594a.561.561,0,0,1-.572-.549V2203.42a.551.551,0,0,1,.363-.511.589.589,0,0,1,.629.138l14.594,15.1a.532.532,0,0,1,.1.593A.572.572,0,0,1,1247.41,2219.075Zm-14.021-1.1h12.71l-12.71-13.155Z" fill="#3d3d3d"/>
        </g>
      </g>
    </g>
    <g id="Group_230" data-name="Group 230">
      <rect id="Rectangle_206" data-name="Rectangle 206" width="5" height="113.173" transform="translate(1088.752 2220.827)" fill="#3d3d3d"/>
    </g>
  </g>
</svg>
