<svg id="Component_79_1" data-name="Component 79 – 1" xmlns="http://www.w3.org/2000/svg" width="43" height="43" viewBox="0 0 43 43">
  <rect id="Rectangle_202" data-name="Rectangle 202" width="43" height="43" rx="4" fill="#5d5744"/>
  <g id="Group_12" data-name="Group 12" transform="translate(10.737 11.737)">
    <path id="Path_4" data-name="Path 4" d="M74.222,118.111a14.3,14.3,0,0,0,22-12.7,10.185,10.185,0,0,0,2.509-2.6,10.022,10.022,0,0,1-2.888.792,5.038,5.038,0,0,0,2.21-2.782,10.088,10.088,0,0,1-3.193,1.221,5.033,5.033,0,0,0-8.57,4.587,14.274,14.274,0,0,1-10.366-5.255,5.036,5.036,0,0,0,1.557,6.715,5.024,5.024,0,0,1-2.279-.629,5.035,5.035,0,0,0,4.034,4.995,5.036,5.036,0,0,1-2.27.086,5.031,5.031,0,0,0,4.7,3.493A10.107,10.107,0,0,1,74.222,118.111Z" transform="translate(-74.222 -100.449)" fill="#ffc200"/>
  </g>
</svg>
