<svg xmlns="http://www.w3.org/2000/svg" xmlns:xlink="http://www.w3.org/1999/xlink" width="84" height="67" viewBox="0 0 84 67">
  <defs>
    <filter id="Union_8">
      <feOffset dy="3" input="SourceAlpha"/>
      <feGaussianBlur stdDeviation="3" result="blur"/>
      <feFlood flood-opacity="0.561" result="color"/>
      <feComposite operator="out" in="SourceGraphic" in2="blur"/>
      <feComposite operator="in" in="color"/>
      <feComposite operator="in" in2="SourceGraphic"/>
    </filter>
    <filter id="Union_9" x="56" y="6" width="28.001" height="60.999" filterUnits="userSpaceOnUse">
      <feOffset dy="3" input="SourceAlpha"/>
      <feGaussianBlur stdDeviation="3" result="blur-2"/>
      <feFlood flood-opacity="0"/>
      <feComposite operator="in" in2="blur-2"/>
    </filter>
    <filter id="Union_9-2" x="56" y="6" width="28.001" height="60.999" filterUnits="userSpaceOnUse">
      <feOffset dy="3" input="SourceAlpha"/>
      <feGaussianBlur stdDeviation="3" result="blur-3"/>
      <feFlood flood-opacity="0.541" result="color-2"/>
      <feComposite operator="out" in="SourceGraphic" in2="blur-3"/>
      <feComposite operator="in" in="color-2"/>
      <feComposite operator="in" in2="SourceGraphic"/>
    </filter>
  </defs>
  <g id="Group_494" data-name="Group 494" transform="translate(-633 -704)" opacity="0.54">
    <g id="Group_491" data-name="Group 491">
      <g data-type="innerShadowGroup">
        <g id="Union_8-2" data-name="Union 8" transform="translate(2074 4204)" fill="#d2cbcb">
          <path d="M -1426.499633789063 -3445.500244140625 L -1435.50048828125 -3445.500244140625 L -1435.50048828125 -3448.5 L -1434.500122070313 -3448.5 L -1434.000122070313 -3448.5 L -1434.000122070313 -3449 L -1434.000122070313 -3487.49951171875 L -1427.999877929688 -3487.49951171875 L -1427.999877929688 -3449 L -1427.999877929688 -3448.5 L -1427.499877929688 -3448.5 L -1426.499633789063 -3448.5 L -1426.499633789063 -3445.500244140625 Z" stroke="none"/>
          <path d="M -1426.999633789063 -3446.000244140625 L -1426.999633789063 -3448 L -1428.499877929688 -3448 L -1428.499877929688 -3486.99951171875 L -1433.500122070313 -3486.99951171875 L -1433.500122070313 -3448 L -1435.00048828125 -3448 L -1435.00048828125 -3446.000244140625 L -1426.999633789063 -3446.000244140625 M -1425.999633789063 -3445.000244140625 L -1436.00048828125 -3445.000244140625 L -1436.00048828125 -3449 L -1434.500122070313 -3449 L -1434.500122070313 -3487.99951171875 L -1427.499877929688 -3487.99951171875 L -1427.499877929688 -3449 L -1425.999633789063 -3449 L -1425.999633789063 -3445.000244140625 Z" stroke="none"/>
        </g>
        <g transform="matrix(1, 0, 0, 1, 633, 704)" filter="url(#Union_8)">
          <g id="Union_8-3" data-name="Union 8" transform="translate(1441 3500)" fill="#fff">
            <path d="M -1426.499633789063 -3445.500244140625 L -1435.50048828125 -3445.500244140625 L -1435.50048828125 -3448.5 L -1434.500122070313 -3448.5 L -1434.000122070313 -3448.5 L -1434.000122070313 -3449 L -1434.000122070313 -3487.49951171875 L -1427.999877929688 -3487.49951171875 L -1427.999877929688 -3449 L -1427.999877929688 -3448.5 L -1427.499877929688 -3448.5 L -1426.499633789063 -3448.5 L -1426.499633789063 -3445.500244140625 Z" stroke="none"/>
            <path d="M -1426.999633789063 -3446.000244140625 L -1426.999633789063 -3448 L -1428.499877929688 -3448 L -1428.499877929688 -3486.99951171875 L -1433.500122070313 -3486.99951171875 L -1433.500122070313 -3448 L -1435.00048828125 -3448 L -1435.00048828125 -3446.000244140625 L -1426.999633789063 -3446.000244140625 M -1425.999633789063 -3445.000244140625 L -1436.00048828125 -3445.000244140625 L -1436.00048828125 -3449 L -1434.500122070313 -3449 L -1434.500122070313 -3487.99951171875 L -1427.499877929688 -3487.99951171875 L -1427.499877929688 -3449 L -1425.999633789063 -3449 L -1425.999633789063 -3445.000244140625 Z" stroke="none"/>
          </g>
        </g>
        <g id="Union_8-4" data-name="Union 8" transform="translate(2074 4204)" fill="none">
          <path d="M -1426.499633789063 -3445.500244140625 L -1435.50048828125 -3445.500244140625 L -1435.50048828125 -3448.5 L -1434.500122070313 -3448.5 L -1434.000122070313 -3448.5 L -1434.000122070313 -3449 L -1434.000122070313 -3487.49951171875 L -1427.999877929688 -3487.49951171875 L -1427.999877929688 -3449 L -1427.999877929688 -3448.5 L -1427.499877929688 -3448.5 L -1426.499633789063 -3448.5 L -1426.499633789063 -3445.500244140625 Z" stroke="none"/>
          <path d="M -1426.999633789063 -3446.000244140625 L -1426.999633789063 -3448 L -1428.499877929688 -3448 L -1428.499877929688 -3486.99951171875 L -1433.500122070313 -3486.99951171875 L -1433.500122070313 -3448 L -1435.00048828125 -3448 L -1435.00048828125 -3446.000244140625 L -1426.999633789063 -3446.000244140625 M -1425.999633789063 -3445.000244140625 L -1436.00048828125 -3445.000244140625 L -1436.00048828125 -3449 L -1434.500122070313 -3449 L -1434.500122070313 -3487.99951171875 L -1427.499877929688 -3487.99951171875 L -1427.499877929688 -3449 L -1425.999633789063 -3449 L -1425.999633789063 -3445.000244140625 Z" stroke="none" fill="#707070"/>
        </g>
      </g>
      <g id="Ellipse_64" data-name="Ellipse 64" transform="translate(637 704)" fill="#9f692b" stroke="#707070" stroke-width="2">
        <circle cx="6" cy="6" r="6" stroke="none"/>
        <circle cx="6" cy="6" r="5" fill="none"/>
      </g>
      <ellipse id="Ellipse_66" data-name="Ellipse 66" cx="1" cy="3.5" rx="1" ry="3.5" transform="translate(641.5 705) rotate(30)" fill="#a29898"/>
    </g>
    <g id="Group_490" data-name="Group 490" transform="translate(2)">
      <g data-type="innerShadowGroup">
        <g transform="matrix(1, 0, 0, 1, 631, 704)" filter="url(#Union_9)">
          <g id="Union_9-3" data-name="Union 9" transform="translate(1501 3500)" fill="#d2cbcb">
            <path d="M -1426.499633789063 -3445.500244140625 L -1435.50048828125 -3445.500244140625 L -1435.50048828125 -3448.5 L -1434.500122070313 -3448.5 L -1434.000122070313 -3448.5 L -1434.000122070313 -3449 L -1434.000122070313 -3487.49951171875 L -1427.999877929688 -3487.49951171875 L -1427.999877929688 -3449 L -1427.999877929688 -3448.5 L -1427.499877929688 -3448.5 L -1426.499633789063 -3448.5 L -1426.499633789063 -3445.500244140625 Z" stroke="none"/>
            <path d="M -1426.999633789063 -3446.000244140625 L -1426.999633789063 -3448 L -1428.499877929688 -3448 L -1428.499877929688 -3486.99951171875 L -1433.500122070313 -3486.99951171875 L -1433.500122070313 -3448 L -1435.00048828125 -3448 L -1435.00048828125 -3446.000244140625 L -1426.999633789063 -3446.000244140625 M -1425.999633789063 -3445.000244140625 L -1436.00048828125 -3445.000244140625 L -1436.00048828125 -3449 L -1434.500122070313 -3449 L -1434.500122070313 -3487.99951171875 L -1427.499877929688 -3487.99951171875 L -1427.499877929688 -3449 L -1425.999633789063 -3449 L -1425.999633789063 -3445.000244140625 Z" stroke="none" fill="#707070"/>
          </g>
        </g>
        <g id="Union_9-4" data-name="Union 9" transform="translate(2132 4204)" fill="#d2cbcb">
          <path d="M -1426.499633789063 -3445.500244140625 L -1435.50048828125 -3445.500244140625 L -1435.50048828125 -3448.5 L -1434.500122070313 -3448.5 L -1434.000122070313 -3448.5 L -1434.000122070313 -3449 L -1434.000122070313 -3487.49951171875 L -1427.999877929688 -3487.49951171875 L -1427.999877929688 -3449 L -1427.999877929688 -3448.5 L -1427.499877929688 -3448.5 L -1426.499633789063 -3448.5 L -1426.499633789063 -3445.500244140625 Z" stroke="none"/>
          <path d="M -1426.999633789063 -3446.000244140625 L -1426.999633789063 -3448 L -1428.499877929688 -3448 L -1428.499877929688 -3486.99951171875 L -1433.500122070313 -3486.99951171875 L -1433.500122070313 -3448 L -1435.00048828125 -3448 L -1435.00048828125 -3446.000244140625 L -1426.999633789063 -3446.000244140625 M -1425.999633789063 -3445.000244140625 L -1436.00048828125 -3445.000244140625 L -1436.00048828125 -3449 L -1434.500122070313 -3449 L -1434.500122070313 -3487.99951171875 L -1427.499877929688 -3487.99951171875 L -1427.499877929688 -3449 L -1425.999633789063 -3449 L -1425.999633789063 -3445.000244140625 Z" stroke="none"/>
        </g>
        <g transform="matrix(1, 0, 0, 1, 631, 704)" filter="url(#Union_9-2)">
          <g id="Union_9-5" data-name="Union 9" transform="translate(1501 3500)" fill="#fff">
            <path d="M -1426.499633789063 -3445.500244140625 L -1435.50048828125 -3445.500244140625 L -1435.50048828125 -3448.5 L -1434.500122070313 -3448.5 L -1434.000122070313 -3448.5 L -1434.000122070313 -3449 L -1434.000122070313 -3487.49951171875 L -1427.999877929688 -3487.49951171875 L -1427.999877929688 -3449 L -1427.999877929688 -3448.5 L -1427.499877929688 -3448.5 L -1426.499633789063 -3448.5 L -1426.499633789063 -3445.500244140625 Z" stroke="none"/>
            <path d="M -1426.999633789063 -3446.000244140625 L -1426.999633789063 -3448 L -1428.499877929688 -3448 L -1428.499877929688 -3486.99951171875 L -1433.500122070313 -3486.99951171875 L -1433.500122070313 -3448 L -1435.00048828125 -3448 L -1435.00048828125 -3446.000244140625 L -1426.999633789063 -3446.000244140625 M -1425.999633789063 -3445.000244140625 L -1436.00048828125 -3445.000244140625 L -1436.00048828125 -3449 L -1434.500122070313 -3449 L -1434.500122070313 -3487.99951171875 L -1427.499877929688 -3487.99951171875 L -1427.499877929688 -3449 L -1425.999633789063 -3449 L -1425.999633789063 -3445.000244140625 Z" stroke="none"/>
          </g>
        </g>
        <g id="Union_9-6" data-name="Union 9" transform="translate(2132 4204)" fill="none">
          <path d="M -1426.499633789063 -3445.500244140625 L -1435.50048828125 -3445.500244140625 L -1435.50048828125 -3448.5 L -1434.500122070313 -3448.5 L -1434.000122070313 -3448.5 L -1434.000122070313 -3449 L -1434.000122070313 -3487.49951171875 L -1427.999877929688 -3487.49951171875 L -1427.999877929688 -3449 L -1427.999877929688 -3448.5 L -1427.499877929688 -3448.5 L -1426.499633789063 -3448.5 L -1426.499633789063 -3445.500244140625 Z" stroke="none"/>
          <path d="M -1426.999633789063 -3446.000244140625 L -1426.999633789063 -3448 L -1428.499877929688 -3448 L -1428.499877929688 -3486.99951171875 L -1433.500122070313 -3486.99951171875 L -1433.500122070313 -3448 L -1435.00048828125 -3448 L -1435.00048828125 -3446.000244140625 L -1426.999633789063 -3446.000244140625 M -1425.999633789063 -3445.000244140625 L -1436.00048828125 -3445.000244140625 L -1436.00048828125 -3449 L -1434.500122070313 -3449 L -1434.500122070313 -3487.99951171875 L -1427.499877929688 -3487.99951171875 L -1427.499877929688 -3449 L -1425.999633789063 -3449 L -1425.999633789063 -3445.000244140625 Z" stroke="none" fill="#707070"/>
        </g>
      </g>
      <g id="Ellipse_65" data-name="Ellipse 65" transform="translate(695 704)" fill="#e68210" stroke="#707070" stroke-width="2">
        <circle cx="6" cy="6" r="6" stroke="none"/>
        <circle cx="6" cy="6" r="5" fill="none"/>
      </g>
      <ellipse id="Ellipse_67" data-name="Ellipse 67" cx="1" cy="3.5" rx="1" ry="3.5" transform="translate(699.5 705) rotate(30)" fill="#a29898"/>
    </g>
    <g id="Group_492" data-name="Group 492">
      <rect id="Rectangle_459" data-name="Rectangle 459" width="81" height="9" transform="translate(633 723)" fill="#ffc200"/>
      <path id="Path_461" data-name="Path 461" d="M.754,2.112,14.016.307l4.295,2.9L20.8,4.882l.668.451L9.033,7.7Z" transform="translate(632.361 730.742) rotate(-34)" fill="#070601"/>
      <path id="Path_462" data-name="Path 462" d="M.754,2.112,14.016.307l4.295,2.9L20.8,4.882l.668.451L9.033,7.7Z" transform="translate(652.361 730.742) rotate(-34)" fill="#070601"/>
      <path id="Path_463" data-name="Path 463" d="M.754,2.112,14.016.307l4.295,2.9L20.8,4.882l.668.451L9.033,7.7Z" transform="translate(672.361 730.742) rotate(-34)" fill="#070601"/>
      <path id="Path_464" data-name="Path 464" d="M.754,2.112,14.016.307l4.295,2.9L20.8,4.882l.668.451L9.033,7.7Z" transform="translate(693.361 730.742) rotate(-34)" fill="#070601"/>
      <path id="Path_465" data-name="Path 465" d="M2,0A2,2,0,1,1,0,2,2,2,0,0,1,2,0Z" transform="translate(701 726)" fill="#baafaf"/>
      <circle id="Ellipse_69" data-name="Ellipse 69" cx="2" cy="2" r="2" transform="translate(641 726)" fill="#baafaf"/>
    </g>
    <g id="Group_493" data-name="Group 493" transform="translate(0 15)">
      <rect id="Rectangle_459-2" data-name="Rectangle 459" width="81" height="9" transform="translate(633 723)" fill="#ffc200"/>
      <path id="Path_461-2" data-name="Path 461" d="M.754,2.112,14.016.307l4.295,2.9L20.8,4.882l.668.451L9.033,7.7Z" transform="translate(632.361 730.742) rotate(-34)" fill="#070601"/>
      <path id="Path_462-2" data-name="Path 462" d="M.754,2.112,14.016.307l4.295,2.9L20.8,4.882l.668.451L9.033,7.7Z" transform="translate(652.361 730.742) rotate(-34)" fill="#070601"/>
      <path id="Path_463-2" data-name="Path 463" d="M.754,2.112,14.016.307l4.295,2.9L20.8,4.882l.668.451L9.033,7.7Z" transform="translate(672.361 730.742) rotate(-34)" fill="#070601"/>
      <path id="Path_464-2" data-name="Path 464" d="M.754,2.112,14.016.307l4.295,2.9L20.8,4.882l.668.451L9.033,7.7Z" transform="translate(693.361 730.742) rotate(-34)" fill="#070601"/>
      <path id="Path_465-2" data-name="Path 465" d="M2,0A2,2,0,1,1,0,2,2,2,0,0,1,2,0Z" transform="translate(701 726)" fill="#baafaf"/>
      <circle id="Ellipse_69-2" data-name="Ellipse 69" cx="2" cy="2" r="2" transform="translate(641 726)" fill="#baafaf"/>
    </g>
  </g>
</svg>
