<svg xmlns="http://www.w3.org/2000/svg" width="48" height="34" viewBox="0 0 48 34">
  <g id="Group_487" data-name="Group 487" transform="translate(-652 -706.667)" opacity="0.62">
    <g id="Group_488" data-name="Group 488" transform="translate(8)">
      <g id="Union_7" data-name="Union 7" transform="translate(675 706.667)" fill="#ec8b2a">
        <path d="M 16.05220603942871 33.50020217895508 L 0.9479514360427856 33.50020217895508 L 5.643450736999512 26.63766098022461 L 5.730800628662109 26.50999069213867 L 5.730800628662109 26.35531044006348 L 5.730800628662109 2.999701023101807 C 5.730800628662109 1.621361136436462 6.852560520172119 0.500001072883606 8.231400489807129 0.500001072883606 L 8.769600868225098 0.500001072883606 C 10.14794063568115 0.500001072883606 11.26930046081543 1.621361136436462 11.26930046081543 2.999701023101807 L 11.26930046081543 26.35450172424316 L 11.26930046081543 26.50917053222656 L 11.35663032531738 26.63682174682617 L 16.05220603942871 33.50020217895508 Z" stroke="none"/>
        <path d="M 15.10431671142578 33.00020217895508 L 10.76930046081543 26.66384124755859 L 10.76930046081543 2.999701023101807 C 10.76930046081543 1.897061109542847 9.872241020202637 1.000001072883606 8.769600868225098 1.000001072883606 L 8.231400489807129 1.000001072883606 C 7.128270626068115 1.000001072883606 6.230800628662109 1.897061109542847 6.230800628662109 2.999701023101807 L 6.230800628662109 26.66468048095703 L 1.895895481109619 33.00020217895508 L 15.10431671142578 33.00020217895508 M 17.00010108947754 34.00020217895508 L 5.447387820822769e-07 34.00020217895508 L 5.230800628662109 26.35531044006348 L 5.230800628662109 2.999701023101807 C 5.230800628662109 1.342801094055176 6.574500560760498 1.089477564164554e-06 8.231400489807129 1.089477564164554e-06 L 8.769600868225098 1.089477564164554e-06 C 10.42650032043457 1.089477564164554e-06 11.76930046081543 1.342801094055176 11.76930046081543 2.999701023101807 L 11.76930046081543 26.35450172424316 L 17.00010108947754 34.00020217895508 Z" stroke="none" fill="#707070"/>
      </g>
      <g id="Path_460" data-name="Path 460" transform="translate(680.5 713.667)" fill="#fff">
        <path d="M 5.5 2.5 L 2.785710096359253 2.5 L 0.5 2.5 L 0.5 0.5 L 5.5 0.5 L 5.5 2.5 Z" stroke="none"/>
        <path d="M 1 1 L 1 2 L 5 2 L 5 1 L 1 1 M 0 0 L 6 0 L 6 3 C 6 3 4.285709857940674 3 2.785710096359253 3 C 1.285709857940674 3 0 3 0 3 L 0 0 Z" stroke="none" fill="#707070"/>
      </g>
      <g id="Rectangle_453" data-name="Rectangle 453" transform="translate(680.5 720.667)" fill="#fff" stroke="#707070" stroke-width="1">
        <rect width="6" height="3" stroke="none"/>
        <rect x="0.5" y="0.5" width="5" height="2" fill="none"/>
      </g>
      <g id="Rectangle_454" data-name="Rectangle 454" transform="translate(680.5 727.667)" fill="#fff" stroke="#707070" stroke-width="1">
        <rect width="6" height="3" stroke="none"/>
        <rect x="0.5" y="0.5" width="5" height="2" fill="none"/>
      </g>
    </g>
    <g id="Group_489" data-name="Group 489" transform="translate(-23)">
      <g id="Union_7-2" data-name="Union 7" transform="translate(675 706.667)" fill="#af7336">
        <path d="M 16.05220603942871 33.50020217895508 L 0.9479514360427856 33.50020217895508 L 5.643450736999512 26.63766098022461 L 5.730800628662109 26.50999069213867 L 5.730800628662109 26.35531044006348 L 5.730800628662109 2.999701023101807 C 5.730800628662109 1.621361136436462 6.852560520172119 0.500001072883606 8.231400489807129 0.500001072883606 L 8.769600868225098 0.500001072883606 C 10.14794063568115 0.500001072883606 11.26930046081543 1.621361136436462 11.26930046081543 2.999701023101807 L 11.26930046081543 26.35450172424316 L 11.26930046081543 26.50917053222656 L 11.35663032531738 26.63682174682617 L 16.05220603942871 33.50020217895508 Z" stroke="none"/>
        <path d="M 15.10431671142578 33.00020217895508 L 10.76930046081543 26.66384124755859 L 10.76930046081543 2.999701023101807 C 10.76930046081543 1.897061109542847 9.872241020202637 1.000001072883606 8.769600868225098 1.000001072883606 L 8.231400489807129 1.000001072883606 C 7.128270626068115 1.000001072883606 6.230800628662109 1.897061109542847 6.230800628662109 2.999701023101807 L 6.230800628662109 26.66468048095703 L 1.895895481109619 33.00020217895508 L 15.10431671142578 33.00020217895508 M 17.00010108947754 34.00020217895508 L 5.447387820822769e-07 34.00020217895508 L 5.230800628662109 26.35531044006348 L 5.230800628662109 2.999701023101807 C 5.230800628662109 1.342801094055176 6.574500560760498 1.089477564164554e-06 8.231400489807129 1.089477564164554e-06 L 8.769600868225098 1.089477564164554e-06 C 10.42650032043457 1.089477564164554e-06 11.76930046081543 1.342801094055176 11.76930046081543 2.999701023101807 L 11.76930046081543 26.35450172424316 L 17.00010108947754 34.00020217895508 Z" stroke="none" fill="#707070"/>
      </g>
      <g id="Path_460-2" data-name="Path 460" transform="translate(680.5 713.667)" fill="#fff">
        <path d="M 5.5 2.5 L 2.785710096359253 2.5 L 0.5 2.5 L 0.5 0.5 L 5.5 0.5 L 5.5 2.5 Z" stroke="none"/>
        <path d="M 1 1 L 1 2 L 5 2 L 5 1 L 1 1 M 0 0 L 6 0 L 6 3 C 6 3 4.285709857940674 3 2.785710096359253 3 C 1.285709857940674 3 0 3 0 3 L 0 0 Z" stroke="none" fill="#707070"/>
      </g>
      <g id="Rectangle_453-2" data-name="Rectangle 453" transform="translate(680.5 720.667)" fill="#fff" stroke="#707070" stroke-width="1">
        <rect width="6" height="3" stroke="none"/>
        <rect x="0.5" y="0.5" width="5" height="2" fill="none"/>
      </g>
      <g id="Rectangle_454-2" data-name="Rectangle 454" transform="translate(680.5 727.667)" fill="#fff" stroke="#707070" stroke-width="1">
        <rect width="6" height="3" stroke="none"/>
        <rect x="0.5" y="0.5" width="5" height="2" fill="none"/>
      </g>
    </g>
  </g>
</svg>
