<svg xmlns="http://www.w3.org/2000/svg" width="56" height="122" viewBox="0 0 56 122">
  <g id="Group_316" data-name="Group 316" transform="translate(-971 -2511)">
    <rect id="Rectangle_351" data-name="Rectangle 351" width="38" height="95" transform="translate(971 2538)" fill="#ffc200"/>
    <rect id="Rectangle_352" data-name="Rectangle 352" width="18" height="95" transform="translate(1009 2538)" fill="#c98f00"/>
    <path id="Path_196" data-name="Path 196" d="M971,2538l19-27,19,27Z" fill="#ffd561"/>
    <path id="Path_197" data-name="Path 197" d="M990,2511l37,27h-18Z" fill="#e8a600"/>
    <g id="Group_306" data-name="Group 306">
      <rect id="Rectangle_353" data-name="Rectangle 353" width="7" height="10" transform="translate(977 2544)" fill="#e8a600"/>
      <rect id="Rectangle_354" data-name="Rectangle 354" width="5" height="8" transform="translate(979 2546)" fill="#ffd561"/>
    </g>
    <g id="Group_307" data-name="Group 307">
      <rect id="Rectangle_355" data-name="Rectangle 355" width="7" height="10" transform="translate(994 2544)" fill="#e8a600"/>
      <rect id="Rectangle_356" data-name="Rectangle 356" width="5" height="8" transform="translate(996 2546)" fill="#ffcb48"/>
    </g>
    <g id="Group_308" data-name="Group 308">
      <rect id="Rectangle_357" data-name="Rectangle 357" width="7" height="10" transform="translate(977 2561)" fill="#e8a600"/>
      <rect id="Rectangle_358" data-name="Rectangle 358" width="5" height="8" transform="translate(979 2563)" fill="#ffd561"/>
    </g>
    <g id="Group_309" data-name="Group 309">
      <rect id="Rectangle_359" data-name="Rectangle 359" width="7" height="10" transform="translate(994 2561)" fill="#e8a600"/>
      <rect id="Rectangle_360" data-name="Rectangle 360" width="5" height="8" transform="translate(996 2563)" fill="#ffd561"/>
    </g>
    <g id="Group_310" data-name="Group 310">
      <rect id="Rectangle_361" data-name="Rectangle 361" width="7" height="10" transform="translate(977 2578)" fill="#e8a600"/>
      <rect id="Rectangle_362" data-name="Rectangle 362" width="5" height="8" transform="translate(979 2580)" fill="#ffcb48"/>
    </g>
    <g id="Group_311" data-name="Group 311">
      <rect id="Rectangle_363" data-name="Rectangle 363" width="7" height="10" transform="translate(994 2578)" fill="#e8a600"/>
      <rect id="Rectangle_364" data-name="Rectangle 364" width="5" height="8" transform="translate(996 2580)" fill="#ffd561"/>
    </g>
    <g id="Group_312" data-name="Group 312">
      <rect id="Rectangle_365" data-name="Rectangle 365" width="7" height="10" transform="translate(977 2595)" fill="#e8a600"/>
      <rect id="Rectangle_366" data-name="Rectangle 366" width="5" height="8" transform="translate(979 2597)" fill="#ffd561"/>
    </g>
    <g id="Group_313" data-name="Group 313">
      <rect id="Rectangle_367" data-name="Rectangle 367" width="7" height="10" transform="translate(994 2595)" fill="#e8a600"/>
      <rect id="Rectangle_368" data-name="Rectangle 368" width="5" height="8" transform="translate(996 2597)" fill="#ffcb48"/>
    </g>
    <g id="Group_314" data-name="Group 314">
      <rect id="Rectangle_369" data-name="Rectangle 369" width="7" height="10" transform="translate(977 2612)" fill="#e8a600"/>
      <rect id="Rectangle_370" data-name="Rectangle 370" width="5" height="8" transform="translate(979 2614)" fill="#ffd561"/>
    </g>
    <g id="Group_315" data-name="Group 315">
      <rect id="Rectangle_371" data-name="Rectangle 371" width="7" height="10" transform="translate(994 2612)" fill="#e8a600"/>
      <rect id="Rectangle_372" data-name="Rectangle 372" width="5" height="8" transform="translate(996 2614)" fill="#ffd561"/>
    </g>
  </g>
</svg>
